<?xml version="1.0" encoding="UTF-8"?>
<svg version="1.1" xmlns="http://www.w3.org/2000/svg" width="445" height="100">
<path d="M0 0 C11.55 0 23.1 0 35 0 C35 0.66 35 1.32 35 2 C34.01 2.33 33.02 2.66 32 3 C32 19.5 32 36 32 53 C32.99 53.33 33.98 53.66 35 54 C35 54.66 35 55.32 35 56 C23.45 56 11.9 56 0 56 C0 55.34 0 54.68 0 54 C1.98 53.505 1.98 53.505 4 53 C4.33 36.5 4.66 20 5 3 C3.35 2.67 1.7 2.34 0 2 C0 1.34 0 0.68 0 0 Z M9 3 C7.78045333 3.99856319 7.78045333 3.99856319 7.87974548 5.98048401 C7.88196609 6.84874313 7.88418671 7.71700226 7.88647461 8.61157227 C7.88655014 9.59251358 7.88662567 10.5734549 7.88670349 11.5841217 C7.89186478 12.6507756 7.89702606 13.7174295 7.90234375 14.81640625 C7.9037587 15.9025975 7.90517365 16.98878876 7.90663147 18.1078949 C7.91224952 21.59279075 7.92480508 25.07762342 7.9375 28.5625 C7.94251267 30.91861887 7.94707598 33.27473874 7.95117188 35.63085938 C7.96222481 41.42059464 7.97898049 47.21029281 8 53 C9.32 53 10.64 53 12 53 C12 48.05 12 43.1 12 38 C12.99 38 13.98 38 15 38 C15 42.62 15 47.24 15 52 C16.65 52.33 18.3 52.66 20 53 C20 48.05 20 43.1 20 38 C20.99 37.505 20.99 37.505 22 37 C21.37351562 36.97421875 20.74703125 36.9484375 20.1015625 36.921875 C18.87566406 36.83679688 18.87566406 36.83679688 17.625 36.75 C16.81289063 36.70359375 16.00078125 36.6571875 15.1640625 36.609375 C13 36 13 36 11.7265625 34.203125 C10.99858118 31.99569776 10.73190835 30.31573088 10.75 28 C10.74484375 27.34 10.7396875 26.68 10.734375 26 C11.06274947 23.52753338 11.52663639 22.02918341 13 20 C15.3828125 19.390625 15.3828125 19.390625 18.125 19.25 C19.03507812 19.19328125 19.94515625 19.1365625 20.8828125 19.078125 C21.58148438 19.05234375 22.28015625 19.0265625 23 19 C25.24610822 25.34195263 24.99656697 29.71765065 23.4609375 36.31640625 C22.91025828 39.52247936 22.90465843 42.56118452 22.9375 45.8125 C22.95103516 47.55466797 22.95103516 47.55466797 22.96484375 49.33203125 C22.97644531 50.21246094 22.98804688 51.09289062 23 52 C24.32 52.33 25.64 52.66 27 53 C27 36.5 27 20 27 3 C25.68 3.33 24.36 3.66 23 4 C23 8.29 23 12.58 23 17 C22.01 17.33 21.02 17.66 20 18 C20 13.05 20 8.1 20 3 C18.35 3.33 16.7 3.66 15 4 C15 8.62 15 13.24 15 18 C14.01 18 13.02 18 12 18 C12 13.05 12 8.1 12 3 C11.01 3 10.02 3 9 3 Z M20 21 C20 22.32 20 23.64 20 25 C20 28.33333333 20 31.66666667 20 35 C21.66641006 34.009245 21.66641006 34.009245 23 32 C23.44286739 29.27466223 23.44286739 26.72533777 23 24 C21.66641006 21.990755 21.66641006 21.990755 20 21 Z M14 22 C12.74050951 23.03406673 12.74050951 23.03406673 12.90234375 25.28515625 C12.91394531 26.20167969 12.92554688 27.11820313 12.9375 28.0625 C12.94652344 28.98160156 12.95554687 29.90070312 12.96484375 30.84765625 C12.97644531 31.55792969 12.98804688 32.26820312 13 33 C14.32 33 15.64 33 17 33 C16.835 32.113125 16.67 31.22625 16.5 30.3125 C16.07004243 27.46403108 15.91558965 24.86995198 16 22 C15.34 22 14.68 22 14 22 Z " fill="#fff" transform="translate(4,31)"/>
<path d="M0 0 C10.89 0 21.78 0 33 0 C33 0.66 33 1.32 33 2 C32.01 2 31.02 2 30 2 C30.33 4.31 30.66 6.62 31 9 C32.98 9 34.96 9 37 9 C37.33 6.69 37.66 4.38 38 2 C37.01 2 36.02 2 35 2 C35 1.34 35 0.68 35 0 C45.23 0 55.46 0 66 0 C66 1.65 66 3.3 66 5 C65.01 5 64.02 5 63 5 C63 4.34 63 3.68 63 3 C60.36 3 57.72 3 55 3 C55 5.31 55 7.62 55 10 C56.65 10 58.3 10 60 10 C60 9.01 60 8.02 60 7 C60.99 7 61.98 7 63 7 C63 9.64 63 12.28 63 15 C62.01 15 61.02 15 60 15 C60 14.01 60 13.02 60 12 C58.35 12 56.7 12 55 12 C55 14.31 55 16.62 55 19 C58.96 18.67 62.92 18.34 67 18 C67 19.32 67 20.64 67 22 C56.44 22 45.88 22 35 22 C35 21.34 35 20.68 35 20 C35.99 20 36.98 20 38 20 C38 17.36 38 14.72 38 12 C35.36 12 32.72 12 30 12 C30 14.64 30 17.28 30 20 C30.99 20 31.98 20 33 20 C33 20.66 33 21.32 33 22 C29.04 22 25.08 22 21 22 C21 21.34 21 20.68 21 20 C21.99 20 22.98 20 24 20 C24 14.06 24 8.12 24 2 C23.01 2 22.02 2 21 2 C21 2.99 21 3.98 21 5 C20.34 5 19.68 5 19 5 C19 4.34 19 3.68 19 3 C17.35 3 15.7 3 14 3 C14 8.61 14 14.22 14 20 C14.99 20 15.98 20 17 20 C17 20.66 17 21.32 17 22 C12.71 22 8.42 22 4 22 C4 21.34 4 20.68 4 20 C4.99 20 5.98 20 7 20 C7 14.39 7 8.78 7 3 C5.35 3 3.7 3 2 3 C2 3.66 2 4.32 2 5 C1.34 5 0.68 5 0 5 C0 3.35 0 1.7 0 0 Z M44 2 C44 7.94 44 13.88 44 20 C45.65 20 47.3 20 49 20 C49 14.06 49 8.12 49 2 C47.35 2 45.7 2 44 2 Z " fill="#fff" transform="translate(53,20)"/>
<path d="M0 0 C3.63 0 7.26 0 11 0 C11 0.66 11 1.32 11 2 C10.01 2.495 10.01 2.495 9 3 C8.97306425 5.12493141 8.95363372 7.24995912 8.9375 9.375 C8.92589844 10.55835938 8.91429688 11.74171875 8.90234375 12.9609375 C8.78533407 15.91921521 8.78533407 15.91921521 10 18 C11.98 18 13.96 18 16 18 C16.33 12.72 16.66 7.44 17 2 C16.01 2 15.02 2 14 2 C14 1.34 14 0.68 14 0 C18.06212212 -0.14547545 22.12357287 -0.23413226 26.1875 -0.3125 C27.33798828 -0.35439453 28.48847656 -0.39628906 29.67382812 -0.43945312 C39.20856088 -0.57763766 39.20856088 -0.57763766 42.3125 2.3125 C44 5 44 5 43.8125 8.3125 C43.544375 9.199375 43.27625 10.08625 43 11 C42.01 11.33 41.02 11.66 40 12 C40.78633922 13.14949588 41.57926258 14.29448989 42.375 15.4375 C42.81585938 16.07558594 43.25671875 16.71367188 43.7109375 17.37109375 C44.92160853 19.13740928 44.92160853 19.13740928 47 20 C47 20.66 47 21.32 47 22 C41.83405051 22.61290926 41.83405051 22.61290926 39 22 C36.76385711 19.97631724 35.28125697 17.72267106 34 15 C34 14.34 34 13.68 34 13 C33.34 13 32.68 13 32 13 C32 15.31 32 17.62 32 20 C32.99 20 33.98 20 35 20 C35 20.66 35 21.32 35 22 C31.04 22 27.08 22 23 22 C23 21.34 23 20.68 23 20 C23.99 20 24.98 20 26 20 C25.67 14.39 25.34 8.78 25 3 C23.68 3 22.36 3 21 3 C20.96261719 4.12019531 20.92523438 5.24039063 20.88671875 6.39453125 C20.82105743 7.8672209 20.75461014 9.33987566 20.6875 10.8125 C20.66494141 11.55048828 20.64238281 12.28847656 20.61914062 13.04882812 C20.34906838 18.47482505 20.34906838 18.47482505 18.69921875 20.95703125 C15.70183718 22.79680339 12.44286226 23.12103813 9 23 C5.37909244 21.42569236 4.20744716 20.31117074 2 17 C1.85778935 14.39754502 1.81197068 11.90882316 1.875 9.3125 C1.88402344 8.61060547 1.89304687 7.90871094 1.90234375 7.18554688 C1.92586296 5.45688475 1.96173287 3.72839855 2 2 C1.34 2 0.68 2 0 2 C0 1.34 0 0.68 0 0 Z M32 3 C32 5.64 32 8.28 32 11 C33.65 10.67 35.3 10.34 37 10 C37 7.69 37 5.38 37 3 C35.35 3 33.7 3 32 3 Z " fill="#fff" transform="translate(102,47)"/>
<path d="M0 0 C11.22 0 22.44 0 34 0 C34 0.66 34 1.32 34 2 C33.01 2 32.02 2 31 2 C31.33 4.31 31.66 6.62 32 9 C33.65 9 35.3 9 37 9 C37.33 6.69 37.66 4.38 38 2 C37.34 2 36.68 2 36 2 C36 1.34 36 0.68 36 0 C39.63 0 43.26 0 47 0 C47 0.66 47 1.32 47 2 C46.34 2 45.68 2 45 2 C45 7.94 45 13.88 45 20 C45.66 20 46.32 20 47 20 C47 20.66 47 21.32 47 22 C43.37 22 39.74 22 36 22 C36 21.34 36 20.68 36 20 C36.66 20 37.32 20 38 20 C38 17.36 38 14.72 38 12 C35.69 12 33.38 12 31 12 C31 14.64 31 17.28 31 20 C31.99 20 32.98 20 34 20 C34 20.66 34 21.32 34 22 C30.04 22 26.08 22 22 22 C22 21.34 22 20.68 22 20 C22.99 20 23.98 20 25 20 C24.67 14.39 24.34 8.78 24 3 C23.34 2.67 22.68 2.34 22 2 C22 2.99 22 3.98 22 5 C21.01 5 20.02 5 19 5 C19 4.34 19 3.68 19 3 C17.35 3 15.7 3 14 3 C14 8.61 14 14.22 14 20 C15.32 20 16.64 20 18 20 C18 20.66 18 21.32 18 22 C13.71 22 9.42 22 5 22 C5 21.34 5 20.68 5 20 C5.99 20 6.98 20 8 20 C8 14.39 8 8.78 8 3 C6.35 3 4.7 3 3 3 C3 3.66 3 4.32 3 5 C2.01 5 1.02 5 0 5 C0 3.35 0 1.7 0 0 Z " fill="#fff" transform="translate(147,47)"/>
<path d="M0 0 C1.875 0.25 1.875 0.25 4 1 C5.0625 2.875 5.0625 2.875 6 5 C6.50015625 5.42152344 7.0003125 5.84304687 7.515625 6.27734375 C9.5849069 8.67879985 9.50360194 10.56123296 9.6875 13.6875 C9.78611328 15.17830078 9.78611328 15.17830078 9.88671875 16.69921875 C9.94279297 17.83810547 9.94279297 17.83810547 10 19 C11.11375 18.95875 12.2275 18.9175 13.375 18.875 C17 19 17 19 19 21 C18.63654773 24.51337196 17.19340982 27.27475395 15 30 C12.19738903 30.53229023 9.99950107 30.7258095 7.19140625 30.69921875 C6.42827621 30.70637405 5.66514618 30.71352936 4.87889099 30.72090149 C3.26587087 30.72868101 1.65274555 30.72366066 0.03979492 30.70678711 C-2.42666845 30.68758433 -4.88747767 30.72689813 -7.35351562 30.77148438 C-8.92187835 30.7717748 -10.49024624 30.76863323 -12.05859375 30.76171875 C-13.16188271 30.78464241 -13.16188271 30.78464241 -14.28746033 30.80802917 C-16.38061523 30.76049805 -16.38061523 30.76049805 -20 30 C-22.50805664 27.09692383 -22.50805664 27.09692383 -24 24 C-23.81353683 21.70028762 -23.62542316 20.62542316 -22 19 C-20.00041636 18.95919217 -17.99954746 18.95745644 -16 19 C-15.95101563 18.38511719 -15.90203125 17.77023438 -15.8515625 17.13671875 C-15.77679688 16.32847656 -15.70203125 15.52023437 -15.625 14.6875 C-15.52058594 13.48673828 -15.52058594 13.48673828 -15.4140625 12.26171875 C-15 10 -15 10 -13 7 C-12.01 7 -11.02 7 -10 7 C-9.71125 6.360625 -9.4225 5.72125 -9.125 5.0625 C-8 3 -8 3 -6 2 C-5.34 2.33 -4.68 2.66 -4 3 C-4 4.65 -4 6.3 -4 8 C-5.32 8.33 -6.64 8.66 -8 9 C-8.66 12.3 -9.32 15.6 -10 19 C-5.05 19 -0.1 19 5 19 C4.25558566 12.83024805 4.25558566 12.83024805 1.9375 7.8125 C0.15237064 4.69328819 0 3.86932706 0 0 Z M-13 14 C-13.33 15.65 -13.66 17.3 -14 19 C-13.34 19 -12.68 19 -12 19 C-12 17.35 -12 15.7 -12 14 C-12.33 14 -12.66 14 -13 14 Z M7 14 C7 15.65 7 17.3 7 19 C7.33 19 7.66 19 8 19 C8 17.35 8 15.7 8 14 C7.67 14 7.34 14 7 14 Z M-21 22 C-21 22.33 -21 22.66 -21 23 C-8.46 23 4.08 23 17 23 C17 22.67 17 22.34 17 22 C4.46 22 -8.08 22 -21 22 Z M-19 26 C-19 26.33 -19 26.66 -19 27 C-8.11 27 2.78 27 14 27 C14 26.67 14 26.34 14 26 C3.11 26 -7.78 26 -19 26 Z " fill="#fff" transform="translate(24,0)"/>
<path d="M0 0 C13.53 0 27.06 0 41 0 C41 1.32 41 2.64 41 4 C38.03 3.67 35.06 3.34 32 3 C31.67 4.98 31.34 6.96 31 9 C32.65 9 34.3 9 36 9 C36 8.34 36 7.68 36 7 C36.99 7 37.98 7 39 7 C39 9.31 39 11.62 39 14 C38.01 14.33 37.02 14.66 36 15 C36 14.01 36 13.02 36 12 C34.35 12 32.7 12 31 12 C31 14.31 31 16.62 31 19 C33.97 19 36.94 19 40 19 C40 18.34 40 17.68 40 17 C40.99 17 41.98 17 43 17 C42.505 19.475 42.505 19.475 42 22 C35.4 22 28.8 22 22 22 C22 21.34 22 20.68 22 20 C22.66 19.67 23.32 19.34 24 19 C24.33 13.39 24.66 7.78 25 2 C24.01 2 23.02 2 22 2 C22 2.66 22 3.32 22 4 C19.69 3.67 17.38 3.34 15 3 C15 8.28 15 13.56 15 19 C15.99 19.33 16.98 19.66 18 20 C18 20.66 18 21.32 18 22 C13.71 22 9.42 22 5 22 C5 21.34 5 20.68 5 20 C5.99 20 6.98 20 8 20 C7.67 14.39 7.34 8.78 7 3 C4.69 3.33 2.38 3.66 0 4 C0 2.68 0 1.36 0 0 Z " fill="#fff" transform="translate(136,75)"/>
<path d="M0 0 C1.71888764 -0.01656837 3.43770614 -0.04387038 5.15625 -0.08203125 C7.62975931 -0.13670232 10.10165212 -0.1586567 12.57568359 -0.17333984 C13.34451874 -0.19600922 14.11335388 -0.21867859 14.90548706 -0.24203491 C17.07910156 -0.23339844 17.07910156 -0.23339844 20.70849609 0.35009766 C22.77929688 2.5703125 22.77929688 2.5703125 23.70849609 5.35009766 C23.37849609 7.00009766 23.04849609 8.65009766 22.70849609 10.35009766 C9.17849609 10.35009766 -4.35150391 10.35009766 -18.29150391 10.35009766 C-18.62150391 8.70009766 -18.95150391 7.05009766 -19.29150391 5.35009766 C-18.63150391 5.35009766 -17.97150391 5.35009766 -17.29150391 5.35009766 C-17.07494141 4.39103516 -17.07494141 4.39103516 -16.85400391 3.41259766 C-15.3614102 -2.06024593 -4.84259601 0.03426584 0 0 Z M-14.29150391 2.35009766 C-14.29150391 3.01009766 -14.29150391 3.67009766 -14.29150391 4.35009766 C-3.40150391 4.35009766 7.48849609 4.35009766 18.70849609 4.35009766 C18.21349609 3.36009766 18.21349609 3.36009766 17.70849609 2.35009766 C7.14849609 2.35009766 -3.41150391 2.35009766 -14.29150391 2.35009766 Z M-16.29150391 6.35009766 C-16.29150391 7.01009766 -16.29150391 7.67009766 -16.29150391 8.35009766 C-4.08150391 8.35009766 8.12849609 8.35009766 20.70849609 8.35009766 C20.70849609 7.69009766 20.70849609 7.03009766 20.70849609 6.35009766 C8.49849609 6.35009766 -3.71150391 6.35009766 -16.29150391 6.35009766 Z " fill="#fff" transform="translate(19.29150390625,89.64990234375)"/>
<path d="M0 0 C2.40459518 1.68845666 3.83569901 3.53051285 4.73828125 6.3203125 C5.36378487 10.17758485 5.16907533 12.81955482 3.98828125 16.5703125 C1.54817389 19.8762644 -0.01904679 20.95803614 -3.94921875 22.1953125 C-8.73176407 22.4736617 -11.976685 21.86392946 -15.94921875 19.1328125 C-18.46595593 15.43635477 -19.24427128 12.64639063 -18.94921875 8.1953125 C-18.14589597 4.85139979 -17.14599875 1.96817906 -14.140625 0.02734375 C-9.64396016 -1.67994611 -4.48106747 -1.8498996 0 0 Z M-9.94921875 2.1953125 C-12.18387104 5.54729093 -12.22030524 6.77322496 -12.19921875 10.6953125 C-12.204375 11.654375 -12.20953125 12.6134375 -12.21484375 13.6015625 C-12.12904484 16.43154147 -12.12904484 16.43154147 -9.94921875 19.1953125 C-6.94921875 19.6953125 -6.94921875 19.6953125 -3.94921875 19.1953125 C-1.71456646 15.84333407 -1.67813226 14.61740004 -1.69921875 10.6953125 C-1.6940625 9.73625 -1.68890625 8.7771875 -1.68359375 7.7890625 C-1.76939266 4.95908353 -1.76939266 4.95908353 -3.94921875 2.1953125 C-6.94921875 1.6953125 -6.94921875 1.6953125 -9.94921875 2.1953125 Z " fill="#fff" transform="translate(95.94921875,47.8046875)"/>
<path d="M0 0 C6.6 0 13.2 0 20 0 C20 1.32 20 2.64 20 4 C18.54119891 3.85892253 17.08296449 3.71197585 15.625 3.5625 C14.40683594 3.44068359 14.40683594 3.44068359 13.1640625 3.31640625 C11 3 11 3 9 2 C9 4.31 9 6.62 9 9 C10.65 9 12.3 9 14 9 C14 8.34 14 7.68 14 7 C14.99 7 15.98 7 17 7 C17 9.64 17 12.28 17 15 C16.01 15 15.02 15 14 15 C14 14.01 14 13.02 14 12 C12.35 12 10.7 12 9 12 C9 14.31 9 16.62 9 19 C11.97 19 14.94 19 18 19 C18 18.34 18 17.68 18 17 C18.99 17 19.98 17 21 17 C21 18.65 21 20.3 21 22 C14.07 22 7.14 22 0 22 C0 21.34 0 20.68 0 20 C0.99 20 1.98 20 3 20 C3 14.06 3 8.12 3 2 C2.01 2 1.02 2 0 2 C0 1.34 0 0.68 0 0 Z " fill="#fff" transform="translate(56,75)"/>
<path d="M0 0 C1.98 0 3.96 0 6 0 C7.31391118 3.27026822 8.62588516 6.54131018 9.9375 9.8125 C10.49727539 11.2056543 10.49727539 11.2056543 11.06835938 12.62695312 C11.60493164 13.9659668 11.60493164 13.9659668 12.15234375 15.33203125 C12.48226318 16.15421143 12.81218262 16.9763916 13.15209961 17.82348633 C13.81716342 19.53066857 14.42062266 21.26186797 15 23 C11.7 23 8.4 23 5 23 C5 22.34 5 21.68 5 21 C5.66 21 6.32 21 7 21 C6.34 19.68 5.68 18.36 5 17 C2.69 17 0.38 17 -2 17 C-2.33 18.32 -2.66 19.64 -3 21 C-2.34 21 -1.68 21 -1 21 C-1 21.66 -1 22.32 -1 23 C-3.64 23 -6.28 23 -9 23 C-9 22.34 -9 21.68 -9 21 C-8.34 21 -7.68 21 -7 21 C-6.82984375 20.40574219 -6.6596875 19.81148437 -6.484375 19.19921875 C-4.58289682 12.69575882 -2.37613734 6.34440732 0 0 Z M1 6 C0.34 8.31 -0.32 10.62 -1 13 C0.65 13 2.3 13 4 13 C3.34 10.69 2.68 8.38 2 6 C1.67 6 1.34 6 1 6 Z " fill="#fff" transform="translate(124,74)"/>
<path d="M0 0 C0.99 0 1.98 0 3 0 C3 25.41 3 50.82 3 77 C2.01 77 1.02 77 0 77 C0 51.59 0 26.18 0 0 Z " fill="#fff" transform="translate(207,20)"/>
<path d="M0 0 C6.27 0 12.54 0 19 0 C19 1.65 19 3.3 19 5 C15.7 4.34 12.4 3.68 9 3 C9 5.64 9 8.28 9 11 C10.97536745 10.65213292 10.97536745 10.65213292 13 10 C13.33 9.34 13.66 8.68 14 8 C14.66 8 15.32 8 16 8 C16 10.64 16 13.28 16 16 C15.34 16 14.68 16 14 16 C14 15.01 14 14.02 14 13 C12.35 13 10.7 13 9 13 C9 15.31 9 17.62 9 20 C10.32 20 11.64 20 13 20 C13 20.66 13 21.32 13 22 C9.04 22 5.08 22 1 22 C1 21.34 1 20.68 1 20 C1.66 20 2.32 20 3 20 C3 14.06 3 8.12 3 2 C2.01 2 1.02 2 0 2 C0 1.34 0 0.68 0 0 Z " fill="#fff" transform="translate(56,47)"/>
<path d="M0 0 C0 1.32 0 2.64 0 4 C-2.97 3.67 -5.94 3.34 -9 3 C-9.33 3.99 -9.66 4.98 -10 6 C-9.37351562 6.19335938 -8.74703125 6.38671875 -8.1015625 6.5859375 C-6.87566406 6.97652344 -6.87566406 6.97652344 -5.625 7.375 C-4.81289062 7.63023438 -4.00078125 7.88546875 -3.1640625 8.1484375 C-1 9 -1 9 1 11 C1.56585366 18.1297561 1.56585366 18.1297561 -0.1328125 20.7421875 C-2.84150478 22.56687142 -4.96138352 22.29156827 -8.1875 22.1875 C-9.27417969 22.16042969 -10.36085938 22.13335937 -11.48046875 22.10546875 C-12.72763672 22.05326172 -12.72763672 22.05326172 -14 22 C-14.33 20.35 -14.66 18.7 -15 17 C-14.1646875 17.2165625 -14.1646875 17.2165625 -13.3125 17.4375 C-8.57557008 18.91753526 -8.57557008 18.91753526 -4 18 C-4 17.01 -4 16.02 -4 15 C-4.62648438 14.75765625 -5.25296875 14.5153125 -5.8984375 14.265625 C-6.71570313 13.93046875 -7.53296875 13.5953125 -8.375 13.25 C-9.18710938 12.92515625 -9.99921875 12.6003125 -10.8359375 12.265625 C-13.37040005 10.78337614 -14.04042895 9.74087421 -15 7 C-14.9375 4.4375 -14.9375 4.4375 -14 2 C-9.70159052 -2.02975889 -5.36065969 -0.96935676 0 0 Z " fill="#fff" transform="translate(94,75)"/>
<path d="M0 0 C7.26 0 14.52 0 22 0 C22 1.32 22 2.64 22 4 C19.69 3.67 17.38 3.34 15 3 C14.67 8.28 14.34 13.56 14 19 C15.32 19.33 16.64 19.66 18 20 C18 20.66 18 21.32 18 22 C13.38 22 8.76 22 4 22 C4.33 21.34 4.66 20.68 5 20 C5.99 20 6.98 20 8 20 C7.67 14.39 7.34 8.78 7 3 C4.69 3.33 2.38 3.66 0 4 C0 2.68 0 1.36 0 0 Z " fill="#fff" transform="translate(96,75)"/>
<path d="M0 0 C1.65 0 3.3 0 5 0 C5 0.66 5 1.32 5 2 C4.34 2 3.68 2 3 2 C2.67 2.99 2.34 3.98 2 5 C6.29 5 10.58 5 15 5 C15.495 9.455 15.495 9.455 16 14 C14.35 14 12.7 14 11 14 C11 11.69 11 9.38 11 7 C10.01 7 9.02 7 8 7 C8.33 9.31 8.66 11.62 9 14 C3.06 14 -2.88 14 -9 14 C-8.67 12.68 -8.34 11.36 -8 10 C-9.65 10 -11.3 10 -13 10 C-12.67 11.32 -12.34 12.64 -12 14 C-13.65 14 -15.3 14 -17 14 C-16.2690065 12.01373486 -15.51456327 10.03608651 -14.75 8.0625 C-14.33234375 6.96035156 -13.9146875 5.85820313 -13.484375 4.72265625 C-12 2 -12 2 -9.828125 1.12109375 C-9.22484375 1.08113281 -8.6215625 1.04117188 -8 1 C-7.3291288 2.6232687 -6.66342971 4.24867578 -6 5.875 C-5.443125 7.23238281 -5.443125 7.23238281 -4.875 8.6171875 C-4 11 -4 11 -4 13 C-3.01 13 -2.02 13 -1 13 C-1.20625 11.783125 -1.4125 10.56625 -1.625 9.3125 C-2.09963844 5.65193227 -1.76581384 3.32388488 0 0 Z M-11 4 C-11.33 5.65 -11.66 7.3 -12 9 C-11.01 9 -10.02 9 -9 9 C-9.33 7.35 -9.66 5.7 -10 4 C-10.33 4 -10.66 4 -11 4 Z M2 6 C2 8.31 2 10.62 2 13 C2.99 13 3.98 13 5 13 C5 10.69 5 8.38 5 6 C4.01 6 3.02 6 2 6 Z " fill="#fff" transform="translate(411,82)"/>
<path d="M0 0 C1.32 0 2.64 0 4 0 C4 4.29 4 8.58 4 13 C4.99 13 5.98 13 7 13 C6.67 10.36 6.34 7.72 6 5 C6.99 5 7.98 5 9 5 C9 7.64 9 10.28 9 13 C9.66 13 10.32 13 11 13 C11.33 11.68 11.66 10.36 12 9 C13.32 9 14.64 9 16 9 C16 8.01 16 7.02 16 6 C14.68 6.33 13.36 6.66 12 7 C12 6.34 12 5.68 12 5 C13.99954746 4.95745644 16.00041636 4.95919217 18 5 C20.04698414 7.04698414 19.70045693 11.30411241 20 14 C16.20847666 14.0867982 12.41720704 14.14032207 8.625 14.1875 C7.54476563 14.21263672 6.46453125 14.23777344 5.3515625 14.26367188 C3.8046875 14.27817383 3.8046875 14.27817383 2.2265625 14.29296875 C1.27346191 14.3086792 0.32036133 14.32438965 -0.66162109 14.34057617 C-1.43328613 14.22818604 -2.20495117 14.1157959 -3 14 C-3.66 13.01 -4.32 12.02 -5 11 C-8.06556598 10.26656572 -8.06556598 10.26656572 -11 10 C-11 10.66 -11 11.32 -11 12 C-9.35 12 -7.7 12 -6 12 C-6 12.66 -6 13.32 -6 14 C-7.98 14 -9.96 14 -12 14 C-13.125 11.75 -13.125 11.75 -14 9 C-13.125 6.6875 -13.125 6.6875 -12 5 C-10.02 5 -8.04 5 -6 5 C-5.67 5.66 -5.34 6.32 -5 7 C-4.34 6.34 -3.68 5.68 -3 5 C-0.375 4.875 -0.375 4.875 2 5 C2 3.68 2 2.36 2 1 C1.34 0.67 0.68 0.34 0 0 Z M-10 6 C-10.33 6.99 -10.66 7.98 -11 9 C-10.01 9 -9.02 9 -8 9 C-8.33 8.01 -8.66 7.02 -9 6 C-9.33 6 -9.66 6 -10 6 Z M0 6 C-0.66 6.66 -1.32 7.32 -2 8 C-1.67958603 10.60280568 -1.67958603 10.60280568 -1 13 C-0.01 12.67 0.98 12.34 2 12 C2 10.02 2 8.04 2 6 C1.34 6 0.68 6 0 6 Z M14 10 C14.33 10.99 14.66 11.98 15 13 C15.33 12.01 15.66 11.02 16 10 C15.34 10 14.68 10 14 10 Z " fill="#fff" transform="translate(388,59)"/>
<path d="M0 0 C1.65 0 3.3 0 5 0 C5.99 2.31 6.98 4.62 8 7 C9.32 4.69 10.64 2.38 12 0 C13.65 0 15.3 0 17 0 C17 4.29 17 8.58 17 13 C15.02 13 13.04 13 11 13 C11.66 12.67 12.32 12.34 13 12 C12.67 10.35 12.34 8.7 12 7 C11.01 8.98 10.02 10.96 9 13 C8.01 12.67 7.02 12.34 6 12 C4.8125 9.4375 4.8125 9.4375 4 7 C3.67 8.65 3.34 10.3 3 12 C3.66 12.33 4.32 12.66 5 13 C3.35 13 1.7 13 0 13 C0 8.71 0 4.42 0 0 Z " fill="#fff" transform="translate(357,60)"/>
<path d="M0 0 C1.32 0 2.64 0 4 0 C4.33 3.3 4.66 6.6 5 10 C6.65 9.67 8.3 9.34 10 9 C10 8.01 10 7.02 10 6 C8.68 6.33 7.36 6.66 6 7 C6 6.34 6 5.68 6 5 C7.99954746 4.95745644 10.00041636 4.95919217 12 5 C13 6 13 6 14 14 C8.06 14 2.12 14 -4 14 C-4.33 11.69 -4.66 9.38 -5 7 C-4.34 6.34 -3.68 5.68 -3 5 C-1.68 5 -0.36 5 1 5 C0.67 3.35 0.34 1.7 0 0 Z M-1 6 C-2.29633621 7.06645115 -2.29633621 7.06645115 -2.0625 9.5625 C-2.041875 10.366875 -2.02125 11.17125 -2 12 C-1.01 12 -0.02 12 1 12 C1 10.02 1 8.04 1 6 C0.34 6 -0.32 6 -1 6 Z M8 10 C8.33 10.99 8.66 11.98 9 13 C9.33 12.01 9.66 11.02 10 10 C9.34 10 8.68 10 8 10 Z " fill="#fff" transform="translate(273,82)"/>
<path d="M0 0 C0.66 0 1.32 0 2 0 C2 0.66 2 1.32 2 2 C2.66 2.33 3.32 2.66 4 3 C3.34 3 2.68 3 2 3 C2 5.31 2 7.62 2 10 C2.66 10.33 3.32 10.66 4 11 C1.525 10.505 1.525 10.505 -1 10 C-1.33 8.02 -1.66 6.04 -2 4 C-3.32 3.67 -4.64 3.34 -6 3 C-6 3.66 -6 4.32 -6 5 C-4.68 5.33 -3.36 5.66 -2 6 C-2 7.65 -2 9.3 -2 11 C-4.31 11 -6.62 11 -9 11 C-9 10.01 -9 9.02 -9 8 C-7.68 8.33 -6.36 8.66 -5 9 C-8.4019487 6.90649311 -11.05272412 6.82057837 -15 7 C-14.67 7.66 -14.34 8.32 -14 9 C-12.68 9 -11.36 9 -10 9 C-10 9.66 -10 10.32 -10 11 C-12.875 11.1875 -12.875 11.1875 -16 11 C-18 8 -18 8 -17.6875 5.375 C-17 3 -17 3 -16 2 C-14.33391013 1.95615553 -12.66619446 1.9603287 -11 2 C-10.01 2 -9.02 2 -8 2 C-5.33333333 2 -2.66666667 2 0 2 C0 1.34 0 0.68 0 0 Z M-14 3 C-14.33 3.99 -14.66 4.98 -15 6 C-14.01 6 -13.02 6 -12 6 C-12.33 5.01 -12.66 4.02 -13 3 C-13.33 3 -13.66 3 -14 3 Z " fill="#fff" transform="translate(386,85)"/>
<path d="M0 0 C1.98 0 3.96 0 6 0 C6.33 2.31 6.66 4.62 7 7 C7.99 5.02 8.98 3.04 10 1 C10.66 1 11.32 1 12 1 C12.66 2.65 13.32 4.3 14 6 C15.10836423 4.11683841 15.10836423 4.11683841 16 2 C15.67 1.34 15.34 0.68 15 0 C16.65 0 18.3 0 20 0 C18.68 3.96 17.36 7.92 16 12 C14.68 12 13.36 12 12 12 C11.34 10.35 10.68 8.7 10 7 C9.34 8.98 8.68 10.96 8 13 C7.01 13 6.02 13 5 13 C4.49440092 11.56445975 3.9957251 10.1264798 3.5 8.6875 C3.2215625 7.88699219 2.943125 7.08648437 2.65625 6.26171875 C2 4 2 4 2 1 C1.34 0.67 0.68 0.34 0 0 Z " fill="#fff" transform="translate(350,83)"/>
<path d="M0 0 C0.99 0 1.98 0 3 0 C3.185625 1.7015625 3.185625 1.7015625 3.375 3.4375 C3.684375 5.2009375 3.684375 5.2009375 4 7 C4.66 7.33 5.32 7.66 6 8 C5.67 5.36 5.34 2.72 5 0 C6.32 0 7.64 0 9 0 C9 2.64 9 5.28 9 8 C9.66 8 10.32 8 11 8 C10.67 5.36 10.34 2.72 10 0 C16.15234375 -0.09765625 16.15234375 -0.09765625 18 0 C19 1 19 1 20 9 C13.73 9 7.46 9 1 9 C0.67 6.03 0.34 3.06 0 0 Z M14 1 C14 3.31 14 5.62 14 8 C14.66 8 15.32 8 16 8 C16 5.69 16 3.38 16 1 C15.34 1 14.68 1 14 1 Z " fill="#fff" transform="translate(248,87)"/>
<path d="M0 0 C1.65 0 3.3 0 5 0 C5 1.32 5 2.64 5 4 C7.475 4.99 7.475 4.99 10 6 C10.33 8.64 10.66 11.28 11 14 C6.05 14 1.1 14 -4 14 C-4.33 11.03 -4.66 8.06 -5 5 C-3.68 4.34 -2.36 3.68 -1 3 C-1 3.66 -1 4.32 -1 5 C-0.34 5.33 0.32 5.66 1 6 C0.34 6 -0.32 6 -1 6 C-1 8.31 -1 10.62 -1 13 C-0.01 13 0.98 13 2 13 C2 9.04 2 5.08 2 1 C1.34 0.67 0.68 0.34 0 0 Z M5 6 C5 8.31 5 10.62 5 13 C5.66 13 6.32 13 7 13 C7 10.69 7 8.38 7 6 C6.34 6 5.68 6 5 6 Z " fill="#fff" transform="translate(332,59)"/>
<path d="M0 0 C1.98 0 3.96 0 6 0 C6.33 0.66 6.66 1.32 7 2 C7.66 1.34 8.32 0.68 9 0 C12.125 -0.125 12.125 -0.125 15 0 C15.33 0.99 15.66 1.98 16 3 C13.525 2.505 13.525 2.505 11 2 C10.67 3.65 10.34 5.3 10 7 C11.98 7 13.96 7 16 7 C16 7.66 16 8.32 16 9 C12.625 9.1875 12.625 9.1875 9 9 C8.34 8.01 7.68 7.02 7 6 C3.93443402 5.26656572 3.93443402 5.26656572 1 5 C1 5.66 1 6.32 1 7 C2.65 7 4.3 7 6 7 C6 7.66 6 8.32 6 9 C4.02 9 2.04 9 0 9 C-1.125 6.75 -1.125 6.75 -2 4 C-1.125 1.6875 -1.125 1.6875 0 0 Z M2 1 C1.67 1.99 1.34 2.98 1 4 C1.99 4 2.98 4 4 4 C3.67 3.01 3.34 2.02 3 1 C2.67 1 2.34 1 2 1 Z " fill="#fff" transform="translate(279,64)"/>
<path d="M0 0 C1.890625 0.2578125 1.890625 0.2578125 4 1 C5.046875 2.7421875 5.046875 2.7421875 5.75 4.875 C6.11351562 5.92300781 6.11351562 5.92300781 6.484375 6.9921875 C7 9 7 9 7 12 C7.66 12.33 8.32 12.66 9 13 C7.02 13 5.04 13 3 13 C3.33 11.68 3.66 10.36 4 9 C2.35 9.33 0.7 9.66 -1 10 C-1 10.99 -1 11.98 -1 13 C-2.65 13 -4.3 13 -6 13 C-5.34 12.67 -4.68 12.34 -4 12 C-3.12484152 9.7231187 -3.12484152 9.7231187 -2.4375 7.0625 C-1.07119741 2.14239482 -1.07119741 2.14239482 0 0 Z M0 4 C-0.33 5.32 -0.66 6.64 -1 8 C0.32 7.67 1.64 7.34 3 7 C2.67 6.01 2.34 5.02 2 4 C1.34 4 0.68 4 0 4 Z " fill="#fff" transform="translate(232,60)"/>
<path d="M0 0 C1.27875 -0.061875 2.5575 -0.12375 3.875 -0.1875 C4.95394531 -0.23970703 4.95394531 -0.23970703 6.0546875 -0.29296875 C6.69664062 -0.19628906 7.33859375 -0.09960938 8 0 C10 3 10 3 9.625 5.6875 C9.41875 6.450625 9.2125 7.21375 9 8 C7.35 8.33 5.7 8.66 4 9 C4.33 10.32 4.66 11.64 5 13 C3.35 13 1.7 13 0 13 C0 8.71 0 4.42 0 0 Z M4 1 C4 3.31 4 5.62 4 8 C4.99 7.67 5.98 7.34 7 7 C7 5.35 7 3.7 7 2 C6.01 1.67 5.02 1.34 4 1 Z " fill="#fff" transform="translate(245,64)"/>
<path d="M0 0 C3.3 0 6.6 0 10 0 C9.67 0.99 9.34 1.98 9 3 C6.525 2.01 6.525 2.01 4 1 C4 2.65 4 4.3 4 6 C5.65 5.67 7.3 5.34 9 5 C9 5.99 9 6.98 9 8 C7.35 7.67 5.7 7.34 4 7 C4 8.65 4 10.3 4 12 C4.66 12.33 5.32 12.66 6 13 C4.02 13 2.04 13 0 13 C0 8.71 0 4.42 0 0 Z " fill="#fff" transform="translate(227,83)"/>
<path d="M0 0 C6.15234375 -0.09765625 6.15234375 -0.09765625 8 0 C10.04698414 2.04698414 9.70045693 6.30411241 10 9 C6.7 9 3.4 9 0 9 C0 6.03 0 3.06 0 0 Z M4 1 C4 3.31 4 5.62 4 8 C4.66 8 5.32 8 6 8 C6 5.69 6 3.38 6 1 C5.34 1 4.68 1 4 1 Z " fill="#fff" transform="translate(308,87)"/>
<path d="M0 0 C0.66 0 1.32 0 2 0 C2 0.66 2 1.32 2 2 C2.66 2.33 3.32 2.66 4 3 C3.34 3 2.68 3 2 3 C2 5.31 2 7.62 2 10 C3.32 10 4.64 10 6 10 C5.67 7.36 5.34 4.72 5 2 C5.99 2 6.98 2 8 2 C8 4.64 8 7.28 8 10 C8.66 10.33 9.32 10.66 10 11 C8.35425434 11.02688151 6.70838587 11.04634123 5.0625 11.0625 C4.14597656 11.07410156 3.22945313 11.08570312 2.28515625 11.09765625 C0 11 0 11 -1 10 C-1.45459858 7.34536879 -1.70243238 4.67810862 -2 2 C-1.34 2 -0.68 2 0 2 C0 1.34 0 0.68 0 0 Z " fill="#fff" transform="translate(288,85)"/>
<path d="M0 0 C2.33294775 -0.04241723 4.66702567 -0.04092937 7 0 C8 1 8 1 8.125 3.9375 C8 7 8 7 7 9 C4.69 9 2.38 9 0 9 C-1.125 2.25 -1.125 2.25 0 0 Z M3 1 C2.34 2.32 1.68 3.64 1 5 C1.99 5.99 2.98 6.98 4 8 C5.29633621 6.93354885 5.29633621 6.93354885 5.0625 4.4375 C5.041875 3.633125 5.02125 2.82875 5 2 C4.34 1.67 3.68 1.34 3 1 Z " fill="#fff" transform="translate(331,87)"/>
<path d="M0 0 C2.33294775 -0.04241723 4.66702567 -0.04092937 7 0 C8 1 8 1 8.125 3.9375 C8 7 8 7 7 9 C4.69 9 2.38 9 0 9 C-1.125 2.25 -1.125 2.25 0 0 Z M3 1 C2.34 2.32 1.68 3.64 1 5 C1.99 5.99 2.98 6.98 4 8 C5.29633621 6.93354885 5.29633621 6.93354885 5.0625 4.4375 C5.041875 3.633125 5.02125 2.82875 5 2 C4.34 1.67 3.68 1.34 3 1 Z " fill="#fff" transform="translate(307,64)"/>
<path d="M0 0 C2.33294775 -0.04241723 4.66702567 -0.04092937 7 0 C8 1 8 1 8.125 3.9375 C8 7 8 7 7 9 C4.69 9 2.38 9 0 9 C-1.125 2.25 -1.125 2.25 0 0 Z M3 1 C2.34 2.32 1.68 3.64 1 5 C1.99 5.99 2.98 6.98 4 8 C5.29633621 6.93354885 5.29633621 6.93354885 5.0625 4.4375 C5.041875 3.633125 5.02125 2.82875 5 2 C4.34 1.67 3.68 1.34 3 1 Z " fill="#fff" transform="translate(263,64)"/>
<path d="M0 0 C2.9375 0.1875 2.9375 0.1875 3.9375 1.1875 C4.0625 4.6875 4.0625 4.6875 3.9375 8.1875 C2.9375 9.1875 2.9375 9.1875 0 9.375 C-3.0625 9.1875 -3.0625 9.1875 -5.0625 7.1875 C-5.3125 4.6875 -5.3125 4.6875 -5.0625 2.1875 C-3.0625 0.1875 -3.0625 0.1875 0 0 Z M-1.0625 1.1875 C-2.35883621 2.25395115 -2.35883621 2.25395115 -2.125 4.75 C-2.104375 5.554375 -2.08375 6.35875 -2.0625 7.1875 C-1.0725 7.5175 -0.0825 7.8475 0.9375 8.1875 C1.93967064 4.60422247 1.93967064 4.60422247 0.9375 1.1875 C0.2775 1.1875 -0.3825 1.1875 -1.0625 1.1875 Z " fill="#fff" transform="translate(303.0625,86.8125)"/>
<path d="M0 0 C2.9375 0.1875 2.9375 0.1875 3.9375 1.1875 C4.0625 4.6875 4.0625 4.6875 3.9375 8.1875 C2.9375 9.1875 2.9375 9.1875 0 9.375 C-3.0625 9.1875 -3.0625 9.1875 -5.0625 7.1875 C-5.3125 4.6875 -5.3125 4.6875 -5.0625 2.1875 C-3.0625 0.1875 -3.0625 0.1875 0 0 Z M-1.0625 1.1875 C-2.35883621 2.25395115 -2.35883621 2.25395115 -2.125 4.75 C-2.104375 5.554375 -2.08375 6.35875 -2.0625 7.1875 C-1.0725 7.5175 -0.0825 7.8475 0.9375 8.1875 C1.93967064 4.60422247 1.93967064 4.60422247 0.9375 1.1875 C0.2775 1.1875 -0.3825 1.1875 -1.0625 1.1875 Z " fill="#fff" transform="translate(243.0625,86.8125)"/>
<path d="M0 0 C1.65 0 3.3 0 5 0 C5 0.66 5 1.32 5 2 C4.34 2 3.68 2 3 2 C2.67 2.99 2.34 3.98 2 5 C2.66 5.33 3.32 5.66 4 6 C3.34 6 2.68 6 2 6 C2 8.31 2 10.62 2 13 C2.66 13.33 3.32 13.66 4 14 C2.02 14 0.04 14 -2 14 C-2.3690205 4.58997722 -2.3690205 4.58997722 0 0 Z " fill="#fff" transform="translate(318,59)"/>
<path d="M0 0 C1.32 0 2.64 0 4 0 C4 0.66 4 1.32 4 2 C3.34 2 2.68 2 2 2 C1.67 2.99 1.34 3.98 1 5 C1.99 5.33 2.98 5.66 4 6 C3.01 6 2.02 6 1 6 C1 8.31 1 10.62 1 13 C1.66 13.33 2.32 13.66 3 14 C1.02 14 -0.96 14 -3 14 C-3.25684171 9.63369099 -3.4224636 6.03503582 -1.75 1.9375 C-1.1725 1.298125 -0.595 0.65875 0 0 Z " fill="#fff" transform="translate(326,82)"/>
<path d="M0 0 C1.98 0 3.96 0 6 0 C6.33 1.65 6.66 3.3 7 5 C5.35 5 3.7 5 2 5 C2.33 5.66 2.66 6.32 3 7 C4.32 7 5.64 7 7 7 C7 7.66 7 8.32 7 9 C4.69 9 2.38 9 0 9 C-1.125 2.25 -1.125 2.25 0 0 Z M3 1 C2.67 1.99 2.34 2.98 2 4 C2.99 4 3.98 4 5 4 C4.67 3.01 4.34 2.02 4 1 C3.67 1 3.34 1 3 1 Z " fill="#fff" transform="translate(344,64)"/>
<path d="M0 0 C1.4540625 0.0309375 1.4540625 0.0309375 2.9375 0.0625 C3.2675 3.0325 3.5975 6.0025 3.9375 9.0625 C1.2975 9.0625 -1.3425 9.0625 -4.0625 9.0625 C-4.3925 8.0725 -4.7225 7.0825 -5.0625 6.0625 C-4.7325 5.4025 -4.4025 4.7425 -4.0625 4.0625 C-2.4125 4.0625 -0.7625 4.0625 0.9375 4.0625 C0.6075 3.4025 0.2775 2.7425 -0.0625 2.0625 C-2.08713255 1.41036708 -2.08713255 1.41036708 -4.0625 1.0625 C-3.0625 0.0625 -3.0625 0.0625 0 0 Z M-1.0625 5.0625 C-1.3925 6.0525 -1.7225 7.0425 -2.0625 8.0625 C-1.0725 7.7325 -0.0825 7.4025 0.9375 7.0625 C0.9375 6.4025 0.9375 5.7425 0.9375 5.0625 C0.2775 5.0625 -0.3825 5.0625 -1.0625 5.0625 Z " fill="#fff" transform="translate(441.0625,86.9375)"/>
<path d="M0 0 C1.32 0 2.64 0 4 0 C4.02696365 1.79158489 4.04637917 3.58328473 4.0625 5.375 C4.07410156 6.37273437 4.08570313 7.37046875 4.09765625 8.3984375 C4 11 4 11 3 13 C1.35 13 -0.3 13 -2 13 C-2 12.34 -2 11.68 -2 11 C-1.34 11 -0.68 11 0 11 C0 7.37 0 3.74 0 0 Z " fill="#fff" transform="translate(272,64)"/>
<path d="M0 0 C2.31 0 4.62 0 7 0 C7 0.99 7 1.98 7 3 C6.34 3 5.68 3 5 3 C5 2.34 5 1.68 5 1 C4.01 1.495 4.01 1.495 3 2 C3 3.65 3 5.3 3 7 C4.32 7 5.64 7 7 7 C7 7.66 7 8.32 7 9 C4.69 9 2.38 9 0 9 C-1.125 2.25 -1.125 2.25 0 0 Z " fill="#fff" transform="translate(429,87)"/>
<path d="M0 0 C2.64 0 5.28 0 8 0 C8 0.66 8 1.32 8 2 C6.68 2 5.36 2 4 2 C4 3.98 4 5.96 4 8 C4.66 8.33 5.32 8.66 6 9 C4.02 9 2.04 9 0 9 C0 6.03 0 3.06 0 0 Z " fill="#fff" transform="translate(339,87)"/>
<path d="M0 0 C0.66 0 1.32 0 2 0 C2 0.66 2 1.32 2 2 C2.66 2.33 3.32 2.66 4 3 C3.34 3 2.68 3 2 3 C2 5.31 2 7.62 2 10 C2.66 10.33 3.32 10.66 4 11 C2.35 11 0.7 11 -1 11 C-1.22174933 9.54364629 -1.42698698 8.08477044 -1.625 6.625 C-1.74101562 5.81289062 -1.85703125 5.00078125 -1.9765625 4.1640625 C-1.98429687 3.44992188 -1.99203125 2.73578125 -2 2 C-1.34 1.34 -0.68 0.68 0 0 Z " fill="#fff" transform="translate(297,62)"/>
<path d="M0 0 C2.31 0 4.62 0 7 0 C7 0.66 7 1.32 7 2 C6.01 2 5.02 2 4 2 C4.33 4.31 4.66 6.62 5 9 C3.35 9 1.7 9 0 9 C0 6.03 0 3.06 0 0 Z " fill="#fff" transform="translate(255,64)"/>
<path d="M0 0 C0.99 0 1.98 0 3 0 C3 0.66 3 1.32 3 2 C2.01 2 1.02 2 0 2 C0 1.34 0 0.68 0 0 Z " fill="#fff" transform="translate(423,83)"/>
<path d="M0 0 C0.99 0 1.98 0 3 0 C3 0.66 3 1.32 3 2 C2.01 2 1.02 2 0 2 C0 1.34 0 0.68 0 0 Z " fill="#fff" transform="translate(293,83)"/>
<path d="M0 0 C0.99 0 1.98 0 3 0 C3 0.66 3 1.32 3 2 C2.01 2 1.02 2 0 2 C0 1.34 0 0.68 0 0 Z " fill="#fff" transform="translate(394,60)"/>
<path d="M0 0 C0.99 0 1.98 0 3 0 C3 0.66 3 1.32 3 2 C2.01 2 1.02 2 0 2 C0 1.34 0 0.68 0 0 Z " fill="#fff" transform="translate(273,60)"/>
</svg>
