<?xml version="1.0" encoding="UTF-8"?>
<svg id="Calque_1" data-name="Calque 1" xmlns="http://www.w3.org/2000/svg" xmlns:xlink="http://www.w3.org/1999/xlink" viewBox="0 0 1397.89 262.71" width="1397.89" height="262.71">
  <defs>
    <clipPath id="clippath">
      <rect x="572.55" y="38.15" width="825.33" height="180.14" style="fill: none;"/>
    </clipPath>
  </defs>
  <g id="Calque_1-2">
    <path d="M516.81,262.71V0" style="fill: none; stroke: #6d2929; stroke-width: 11px;"/>
    <g style="clip-path: url(#clippath);">
      <g>
        <path d="M592.04,107.89v2.12h-17.61v-2.12l6.08-1.09,18.25-50.76h7.58l18.95,50.76,6.79,1.09v2.12h-22.62v-2.12l7.17-1.09-5.3-15.44h-21.08l-5.37,15.44,7.16,1.09ZM600.63,61.79l-9.18,26h18.63l-9.45-26ZM652.62,75.29l-4.26-1.02v-1.78h10.53l.09,2.19c.55-.48,1.2-.91,1.97-1.29.76-.39,1.57-.72,2.45-.99.88-.28,1.81-.5,2.8-.66.99-.17,2-.26,3-.26,2.34,0,4.44.42,6.31,1.25,1.86.82,3.44,2.06,4.75,3.7,1.3,1.63,2.29,3.66,2.96,6.08.69,2.4,1.03,5.17,1.03,8.32s-.35,5.81-1.05,8.28c-.69,2.45-1.72,4.56-3.11,6.31-1.38,1.74-3.11,3.08-5.21,4.01-2.08.92-4.52,1.38-7.32,1.38-1.36,0-2.8-.07-4.31-.22-1.5-.14-2.92-.35-4.26-.64.03.32.05.68.09,1.09.04.42.06.85.07,1.29.03.44.04.85.05,1.22,0,.37.02.67.02.92v10.14l6.53.95v1.87h-17.86v-1.87l4.75-.95v-49.31h0ZM677.04,90.81c0-2.72-.23-5.04-.68-6.96-.44-1.92-1.09-3.48-1.97-4.69-.86-1.22-1.92-2.1-3.16-2.65-1.25-.57-2.67-.85-4.23-.85-1.28,0-2.64.12-4.11.35-1.45.22-2.68.55-3.68.97v29.97c1.11.21,2.35.38,3.7.49,1.36.12,2.72.19,4.08.19,3.51,0,6.06-1.46,7.66-4.36,1.59-2.91,2.39-7.06,2.39-12.47M710.65,71.49v10.15h-1.73l-2.31-4.4c-.73,0-1.54.05-2.39.17-.85.1-1.7.24-2.56.41-.85.18-1.67.38-2.45.63-.79.25-1.47.49-2.06.75v28.02l6.44.99v1.8h-17.81v-1.8l4.75-.99v-31.92l-4.75-1.02v-1.78h10.93l.37,4.67c.61-.51,1.45-1.09,2.5-1.75,1.07-.64,2.22-1.26,3.46-1.84,1.24-.59,2.47-1.09,3.72-1.49,1.24-.41,2.34-.61,3.29-.61h.6,0ZM745.84,91.05c0,6.36-1.42,11.23-4.26,14.64-2.84,3.4-7.28,5.1-13.28,5.1-5.64,0-9.91-1.69-12.79-5.06-2.87-3.38-4.31-8.28-4.31-14.68s1.43-11.19,4.31-14.53c2.88-3.36,7.25-5.04,13.1-5.04s9.98,1.64,12.87,4.93c2.91,3.29,4.36,8.18,4.36,14.65M738.67,91.05c0-2.59-.18-4.9-.53-6.93-.34-2.03-.92-3.75-1.73-5.15s-1.89-2.45-3.22-3.18c-1.32-.73-2.96-1.1-4.89-1.1s-3.6.37-4.87,1.1c-1.28.72-2.29,1.78-3.04,3.18s-1.27,3.12-1.56,5.15c-.28,2.04-.42,4.35-.42,6.93s.14,4.93.42,6.98c.29,2.05.81,3.79,1.56,5.21.74,1.42,1.76,2.52,3.04,3.28,1.27.76,2.9,1.14,4.87,1.14s3.57-.38,4.89-1.14c1.33-.76,2.41-1.85,3.22-3.28.81-1.42,1.39-3.15,1.73-5.21.34-2.05.53-4.37.53-6.98M761.38,60.24c0,.58-.12,1.13-.35,1.66-.22.51-.53.97-.94,1.38s-.86.71-1.38.94c-.51.22-1.07.34-1.66.34s-1.17-.11-1.7-.34c-.51-.23-.97-.54-1.38-.94-.4-.41-.71-.87-.94-1.38-.22-.52-.34-1.08-.34-1.66s.11-1.15.34-1.68c.23-.54.54-1.01.94-1.4.41-.41.87-.72,1.38-.94.51-.23,1.08-.35,1.7-.35s1.14.12,1.66.35c.52.22.98.53,1.38.94.41.4.72.86.94,1.4.23.53.35,1.09.35,1.68M760.98,111.57c0,2.82-.29,5.23-.87,7.23-.57,2.01-1.38,3.66-2.43,4.93-1.06,1.27-2.3,2.21-3.75,2.8s-3.05.88-4.8.88c-1.17,0-2.2-.07-3.06-.2-.85-.14-1.76-.31-2.74-.51v-7.95h1.87l1.09,4.36c.87.73,1.97,1.1,3.31,1.1,1.57,0,2.75-.84,3.55-2.52.79-1.67,1.19-4.37,1.19-8.1v-38.31l-5.63-1.02v-1.78h12.27v39.07ZM775.5,91.13v.72c0,1.94.14,3.81.42,5.59.28,1.78.84,3.36,1.68,4.72.83,1.36,2.01,2.45,3.53,3.28,1.52.81,3.51,1.22,5.98,1.22.79,0,1.63-.03,2.52-.09.88-.07,1.76-.16,2.63-.26.88-.11,1.73-.23,2.56-.37.82-.13,1.58-.28,2.28-.44v2.23c-.62.41-1.36.79-2.23,1.14-.86.36-1.81.68-2.85.97-1.03.29-2.14.52-3.31.7-1.17.17-2.35.26-3.55.26-3.12,0-5.75-.42-7.89-1.27-2.14-.85-3.88-2.11-5.21-3.79-1.32-1.68-2.28-3.75-2.87-6.22-.58-2.47-.87-5.32-.87-8.56,0-6.55,1.37-11.43,4.11-14.64,2.73-3.22,6.65-4.84,11.74-4.84,2,0,3.87.27,5.61.81,1.74.53,3.26,1.41,4.57,2.67,1.3,1.25,2.33,2.93,3.09,5.04.76,2.1,1.14,4.72,1.14,7.86v3.28h-23.06ZM784.16,74.68c-1.5,0-2.79.31-3.87.94-1.07.63-1.96,1.52-2.67,2.67-.7,1.14-1.23,2.53-1.56,4.16s-.49,3.46-.49,5.48h16.06c0-2.02-.12-3.85-.35-5.48-.22-1.62-.62-3.02-1.19-4.16-.58-1.15-1.34-2.04-2.3-2.67-.96-.62-2.17-.94-3.63-.94M831.88,107.72c-.69.51-1.51.96-2.46,1.34-.95.38-1.98.7-3.07.95-1.09.26-2.23.45-3.43.57-1.17.13-2.33.2-3.44.2-3.25,0-6.03-.44-8.34-1.32-2.3-.89-4.18-2.19-5.65-3.9-1.47-1.7-2.54-3.78-3.24-6.23-.69-2.46-1.03-5.25-1.03-8.37,0-3.41.45-6.34,1.34-8.79.89-2.46,2.14-4.49,3.74-6.08,1.59-1.58,3.49-2.75,5.69-3.5,2.19-.74,4.59-1.12,7.2-1.12,2.15,0,4.25.13,6.27.39s3.85.55,5.5.87v10.45h-2.19l-1.71-6.62c-.98-.57-2.17-1.02-3.57-1.36s-2.86-.51-4.38-.51c-1.73,0-3.26.31-4.58.94-1.32.63-2.43,1.61-3.35,2.94-.91,1.32-1.6,3.01-2.06,5.06-.47,2.05-.7,4.49-.7,7.34,0,2.39.19,4.56.59,6.49.41,1.92,1.11,3.57,2.12,4.93,1.02,1.35,2.38,2.4,4.11,3.14,1.71.75,3.89,1.12,6.52,1.12.91,0,1.83-.03,2.78-.09.94-.07,1.85-.17,2.74-.29.89-.12,1.73-.26,2.52-.42.79-.16,1.48-.34,2.1-.51v2.4ZM844.47,110.8c-2.57,0-4.48-.75-5.74-2.26-1.26-1.52-1.9-3.65-1.9-6.38v-26.31h-4.91v-1.8l5.01-1.55,4.03-8.49h2.5v8.49h8.59v3.35h-8.59v25.59c0,1.73.39,3.04,1.17,3.92.79.87,1.81,1.31,3.09,1.31.99,0,1.97-.06,2.94-.2.96-.13,1.86-.28,2.68-.44v2.6c-.4.27-.92.54-1.56.81-.65.26-1.37.49-2.15.68-.79.2-1.62.37-2.5.49-.87.12-1.77.19-2.66.19M905.48,91.05c0,6.36-1.42,11.23-4.27,14.64-2.84,3.4-7.28,5.1-13.28,5.1-5.64,0-9.91-1.69-12.79-5.06-2.87-3.38-4.31-8.28-4.31-14.68s1.43-11.19,4.31-14.53c2.88-3.36,7.25-5.04,13.1-5.04s9.98,1.64,12.87,4.93c2.91,3.29,4.36,8.18,4.36,14.65M898.3,91.05c0-2.59-.18-4.9-.53-6.93-.34-2.03-.92-3.75-1.73-5.15s-1.89-2.45-3.22-3.18c-1.32-.73-2.96-1.1-4.89-1.1s-3.6.37-4.87,1.1c-1.28.72-2.29,1.78-3.04,3.18s-1.27,3.12-1.56,5.15c-.28,2.04-.42,4.35-.42,6.93s.14,4.93.42,6.98c.29,2.05.81,3.79,1.56,5.21.74,1.42,1.76,2.52,3.04,3.28,1.27.76,2.9,1.14,4.87,1.14s3.57-.38,4.89-1.14c1.33-.76,2.41-1.85,3.22-3.28.81-1.42,1.39-3.15,1.73-5.21.35-2.05.53-4.37.53-6.98M914.3,75.84h-6.45v-1.95l6.45-1.56v-2.63c0-2.82.28-5.3.85-7.44.57-2.15,1.4-3.94,2.48-5.39,1.08-1.46,2.39-2.56,3.96-3.29,1.55-.74,3.3-1.12,5.25-1.12,1.2,0,2.27.07,3.2.22s1.77.33,2.52.53v8.19h-1.97l-1.78-4.91c-.43-.26-.9-.48-1.41-.63-.5-.15-1.12-.22-1.85-.22-.94,0-1.7.21-2.28.63-.59.41-1.06,1.04-1.4,1.92-.34.86-.58,1.96-.72,3.29-.14,1.32-.2,2.92-.2,4.79v6.23h9.99v3.35h-9.99v31.06l8.11,1.31v1.8h-20.27v-1.8l5.54-1.31v-31.06h0ZM959.76,110.8c-2.57,0-4.48-.75-5.74-2.26-1.26-1.52-1.9-3.65-1.9-6.38v-26.31h-4.91v-1.8l5.01-1.55,4.03-8.49h2.5v8.49h8.59v3.35h-8.59v25.59c0,1.73.39,3.04,1.17,3.92.79.87,1.81,1.31,3.09,1.31.99,0,1.97-.06,2.94-.2.96-.13,1.86-.28,2.68-.44v2.6c-.4.27-.92.54-1.56.81-.65.26-1.37.49-2.15.68-.79.2-1.62.37-2.5.49-.87.12-1.77.19-2.66.19" style="fill: #6d2929;"/>
        <path d="M978.87,69.53c0,.38,0,.84-.02,1.36-.02.53-.03,1.08-.04,1.66-.02.58-.04,1.13-.09,1.66-.04.53-.08.97-.13,1.32.74-.42,1.64-.88,2.7-1.36,1.07-.48,2.17-.91,3.33-1.31,1.17-.41,2.32-.73,3.48-.99,1.17-.26,2.23-.39,3.18-.39,1.43,0,2.75.2,3.94.61,1.2.41,2.23,1.05,3.09,1.93.87.87,1.55,2.01,2.04,3.43.5,1.41.75,3.11.75,5.1v24.67l4.55.99v1.8h-16.17v-1.8l4.99-.99v-24.19c0-2.21-.54-3.9-1.62-5.08-1.07-1.18-2.74-1.78-5.01-1.78-.73,0-1.53.04-2.38.13-.84.07-1.67.17-2.5.27-.82.11-1.6.24-2.31.39s-1.31.27-1.78.37v29.89l5.08.99v1.8h-16.44v-1.8l4.75-.99v-51.16l-5.59-.95v-1.8h12.21v16.22h-.02ZM1013.83,91.13v.72c0,1.94.14,3.81.42,5.59.28,1.78.84,3.36,1.68,4.72.83,1.36,2.01,2.45,3.53,3.28,1.52.81,3.51,1.22,5.98,1.22.79,0,1.63-.03,2.52-.09.88-.07,1.76-.16,2.63-.26.88-.11,1.73-.23,2.56-.37.82-.13,1.58-.28,2.28-.44v2.23c-.62.41-1.36.79-2.23,1.14-.86.36-1.81.68-2.85.97-1.03.29-2.14.52-3.31.7-1.17.17-2.35.26-3.55.26-3.12,0-5.75-.42-7.89-1.27-2.14-.85-3.88-2.11-5.21-3.79-1.32-1.68-2.28-3.75-2.87-6.22-.58-2.47-.87-5.32-.87-8.56,0-6.55,1.37-11.43,4.11-14.64,2.73-3.22,6.65-4.84,11.74-4.84,2,0,3.87.27,5.61.81,1.74.53,3.26,1.41,4.57,2.67,1.3,1.25,2.33,2.93,3.09,5.04.76,2.1,1.14,4.72,1.14,7.86v3.28h-23.06ZM1022.5,74.68c-1.5,0-2.79.31-3.87.94-1.07.63-1.96,1.52-2.67,2.67-.7,1.14-1.23,2.53-1.56,4.16s-.49,3.46-.49,5.48h16.06c0-2.02-.12-3.85-.35-5.48-.22-1.62-.62-3.02-1.19-4.16-.58-1.15-1.34-2.04-2.3-2.67-.96-.62-2.17-.94-3.63-.94M1088.03,110h-1.4l-19.59-46.01v42.81l7.17,1.09v2.12h-18.23v-2.12l6.86-1.09v-47.17l-6.86-1.03v-2.12h16.2l17.4,40.71,18.98-40.71h15.32v2.12l-6.86,1.03v47.17l6.86,1.09v2.12h-21.7v-2.12l7.2-1.09v-42.81l-21.35,46.01ZM1133.4,91.13v.72c0,1.94.14,3.81.42,5.59.28,1.78.84,3.36,1.68,4.72.83,1.36,2.01,2.45,3.53,3.28,1.52.81,3.51,1.22,5.98,1.22.79,0,1.63-.03,2.52-.09.88-.07,1.76-.16,2.63-.26.88-.11,1.73-.23,2.56-.37.82-.13,1.58-.28,2.28-.44v2.23c-.62.41-1.36.79-2.23,1.14-.86.36-1.81.68-2.85.97-1.03.29-2.14.52-3.31.7-1.17.17-2.35.26-3.55.26-3.12,0-5.75-.42-7.89-1.27-2.14-.85-3.88-2.11-5.21-3.79-1.32-1.68-2.28-3.75-2.87-6.22-.58-2.47-.87-5.32-.87-8.56,0-6.55,1.37-11.43,4.11-14.64,2.73-3.22,6.65-4.84,11.74-4.84,2,0,3.87.27,5.61.81,1.74.53,3.26,1.41,4.57,2.67,1.3,1.25,2.33,2.93,3.09,5.04.76,2.1,1.14,4.72,1.14,7.86v3.28h-23.06ZM1142.06,74.68c-1.5,0-2.79.31-3.87.94-1.07.63-1.96,1.52-2.67,2.67-.7,1.14-1.23,2.53-1.56,4.16s-.49,3.46-.49,5.48h16.06c0-2.02-.12-3.85-.35-5.48-.22-1.62-.62-3.02-1.19-4.16-.58-1.15-1.34-2.04-2.3-2.67-.96-.62-2.17-.94-3.63-.94M1184.89,107.21c-1.17.94-2.64,1.77-4.38,2.5-1.74.72-3.8,1.09-6.16,1.09-10.24,0-15.36-6.39-15.36-19.19,0-3.12.34-5.92,1.02-8.41.67-2.49,1.71-4.6,3.13-6.35,1.4-1.74,3.19-3.07,5.35-3.99,2.15-.92,4.71-1.38,7.66-1.38,1.36,0,2.81.09,4.34.26,1.53.16,3,.38,4.42.66-.06-.28-.11-.71-.13-1.29-.03-.57-.04-1.18-.05-1.84l-.05-1.93c-.02-.64-.02-1.16-.02-1.56v-9.73l-6.29-.95v-1.8h12.94v53.92l4.62.99v1.8h-10.53l-.49-2.79ZM1166.16,91.61c0,2.8.25,5.15.73,7.06s1.18,3.47,2.1,4.65c.91,1.17,2,2.03,3.28,2.56,1.27.51,2.69.78,4.27.78s3.1-.15,4.5-.46c1.4-.3,2.6-.67,3.59-1.1v-29.65c-1.12-.2-2.4-.37-3.87-.49s-2.87-.19-4.23-.19c-3.53,0-6.15,1.43-7.84,4.28-1.68,2.83-2.53,7.03-2.53,12.56" style="fill: #6d2929;"/>
        <path d="M1208.74,60.24c0,.58-.12,1.13-.35,1.66-.45,1.04-1.28,1.87-2.33,2.31-.53.22-1.08.34-1.66.34s-1.15-.11-1.68-.34c-.51-.23-.97-.54-1.38-.94-.4-.41-.71-.87-.94-1.38-.22-.52-.34-1.08-.34-1.66s.11-1.15.34-1.68c.23-.54.54-1.01.94-1.4.41-.41.87-.72,1.38-.94.52-.23,1.09-.35,1.68-.35s1.13.12,1.66.35c.54.22,1.01.53,1.4.94.41.4.72.86.94,1.4.23.53.35,1.09.35,1.68M1208.35,107.21l6.42.99v1.8h-19.44v-1.8l6.38-.99v-31.92l-5.3-1.02v-1.78h11.94v34.72ZM1231.62,71.64c1.7,0,3.28.16,4.75.48,1.46.32,2.72.87,3.79,1.63s1.9,1.82,2.48,3.14c.6,1.32.9,2.97.9,4.96v25.33l4.67.99v1.8h-10.29l-.78-3.75c-.4.41-.94.87-1.62,1.4-.68.53-1.49,1.02-2.45,1.49s-2.07.86-3.33,1.17c-1.26.32-2.67.48-4.21.48-1.8,0-3.33-.27-4.57-.83-1.25-.57-2.23-1.34-2.98-2.34-.75-.99-1.28-2.17-1.6-3.55-.32-1.37-.48-2.85-.48-4.45s.19-3.08.59-4.28c.41-1.22.96-2.23,1.68-3.06.72-.82,1.57-1.49,2.54-2,.98-.52,2.03-.94,3.16-1.24,1.13-.29,2.32-.49,3.59-.59s2.53-.18,3.81-.2l5.63-.17v-5.87c0-1.11-.09-2.14-.27-3.06s-.49-1.71-.94-2.38-1.04-1.17-1.78-1.55c-.73-.38-1.67-.57-2.78-.57-1.28,0-2.57.18-3.89.51-1.3.34-2.45.8-3.43,1.36l-1.36,4.67h-2.24v-8.19c1.74-.37,3.53-.69,5.37-.97,1.85-.23,3.86-.38,6.02-.38M1236.92,90.89l-5.23.17c-1.57.05-2.92.2-4.06.46-1.14.25-2.08.68-2.83,1.29-.75.62-1.32,1.46-1.7,2.52-.37,1.06-.55,2.41-.55,4.06,0,4.69,1.91,7.03,5.72,7.03,1.8,0,3.36-.2,4.67-.63,1.32-.42,2.65-.94,3.97-1.58v-13.32ZM590.57,175.62v20.82l8.9,1.09v2.12h-22.96v-2.12l6.35-1.09v-47.17l-6.86-1.03v-2.12h40.14v12.8h-2.63l-1.27-8.66c-.86-.1-1.9-.19-3.11-.26-1.2-.08-2.43-.15-3.68-.19-1.25-.04-2.44-.08-3.55-.09-1.12,0-1.98-.02-2.6-.02h-8.74v22.31h15.78l1.24-6.38h2.43v16.42h-2.43l-1.24-6.45h-15.77ZM653.58,180.69c0,6.36-1.42,11.23-4.26,14.64-2.84,3.4-7.28,5.1-13.28,5.1-5.64,0-9.91-1.69-12.79-5.06-2.87-3.38-4.31-8.28-4.31-14.68s1.43-11.19,4.31-14.53c2.88-3.36,7.25-5.04,13.1-5.04s9.98,1.64,12.87,4.93c2.91,3.3,4.36,8.19,4.36,14.66M646.4,180.69c0-2.59-.18-4.9-.53-6.93-.34-2.03-.92-3.75-1.73-5.15s-1.89-2.45-3.22-3.18c-1.32-.73-2.96-1.1-4.89-1.1s-3.6.37-4.87,1.1c-1.28.72-2.29,1.78-3.04,3.18s-1.27,3.12-1.56,5.15c-.28,2.04-.42,4.35-.42,6.93s.14,4.93.42,6.98c.29,2.05.81,3.79,1.56,5.21.74,1.42,1.76,2.52,3.04,3.28,1.27.76,2.9,1.14,4.87,1.14s3.57-.38,4.89-1.14c1.33-.76,2.41-1.85,3.22-3.28.81-1.42,1.39-3.15,1.73-5.21.35-2.05.53-4.37.53-6.98M665.91,188.96c0,2.21.49,3.91,1.49,5.1,1.01,1.17,2.63,1.77,4.89,1.77,1.49,0,3.04-.1,4.64-.29,1.59-.2,3.13-.52,4.62-.95v-29.63l-5.67-1.02v-1.78h12.26v34.71l4.77.99v1.8h-10.95l-.31-3.04c-.78.43-1.7.87-2.76,1.32-1.07.46-2.18.87-3.33,1.24-1.16.37-2.31.67-3.5.9-1.17.25-2.23.37-3.18.37-1.45,0-2.76-.2-3.92-.61-1.15-.38-2.18-1.03-3.02-1.9-.84-.88-1.48-2.02-1.95-3.43-.47-1.4-.7-3.09-.7-5.08v-24.5l-4.79-1.02v-1.78h11.41v26.84h0Z" style="fill: #6d2929;"/>
        <path d="M703.94,165.17c.74-.42,1.62-.88,2.65-1.36,1.05-.48,2.13-.92,3.22-1.31,1.11-.41,2.23-.73,3.35-.99s2.15-.39,3.11-.39c1.43,0,2.75.2,3.96.61,1.2.41,2.23,1.05,3.09,1.93.87.87,1.55,2.01,2.04,3.43s.73,3.11.73,5.1v24.67l4.55.99v1.8h-16.15v-1.8l4.99-.99v-23.97c0-2.21-.54-3.94-1.62-5.21-1.08-1.26-2.75-1.9-5.01-1.9-.75,0-1.54.04-2.38.13-.82.07-1.63.17-2.43.27-.8.11-1.55.24-2.26.39-.7.15-1.29.27-1.77.37v29.89l5.08.99v1.8h-16.2v-1.8l4.5-.99v-31.92l-4.5-1.02v-1.78h10.68l.36,3.05ZM757.47,196.84c-1.17.94-2.64,1.77-4.38,2.5-1.74.72-3.8,1.09-6.16,1.09-10.24,0-15.36-6.39-15.36-19.19,0-3.12.34-5.92,1.02-8.41.67-2.49,1.71-4.6,3.13-6.35,1.4-1.74,3.19-3.07,5.35-3.99,2.15-.92,4.71-1.38,7.66-1.38,1.36,0,2.81.09,4.34.26,1.53.16,3,.38,4.42.66-.06-.28-.11-.71-.13-1.29-.03-.57-.04-1.18-.05-1.84l-.05-1.93c-.02-.64-.02-1.16-.02-1.56v-9.73l-6.29-.95v-1.8h12.94v53.92l4.62.99v1.8h-10.53l-.49-2.79ZM738.74,181.25c0,2.8.25,5.15.73,7.06s1.18,3.47,2.1,4.65c.91,1.17,2,2.03,3.28,2.56,1.27.51,2.69.78,4.26.78s3.1-.15,4.5-.46c1.4-.3,2.6-.67,3.59-1.1v-29.65c-1.12-.2-2.4-.37-3.87-.49s-2.87-.19-4.23-.19c-3.53,0-6.15,1.43-7.84,4.28-1.68,2.83-2.53,7.03-2.53,12.56M784.76,161.28c1.7,0,3.28.16,4.75.48,1.46.32,2.72.87,3.79,1.63,1.07.78,1.9,1.82,2.48,3.14.6,1.32.9,2.97.9,4.96v25.33l4.67.99v1.8h-10.29l-.78-3.75c-.4.41-.94.87-1.62,1.4-.68.53-1.49,1.02-2.45,1.49s-2.07.86-3.33,1.17-2.67.48-4.21.48c-1.8,0-3.33-.27-4.57-.83-1.25-.57-2.23-1.34-2.98-2.34-.75-.99-1.28-2.17-1.6-3.55-.32-1.37-.48-2.85-.48-4.45s.19-3.08.59-4.28c.41-1.22.96-2.23,1.68-3.06.72-.82,1.57-1.49,2.54-2,.98-.52,2.03-.94,3.16-1.24,1.13-.29,2.32-.49,3.59-.59s2.53-.18,3.81-.2l5.63-.17v-5.87c0-1.11-.09-2.14-.27-3.06s-.49-1.71-.94-2.38-1.04-1.17-1.78-1.55c-.73-.38-1.67-.57-2.78-.57-1.28,0-2.57.18-3.89.51-1.3.34-2.45.8-3.43,1.36l-1.36,4.67h-2.24v-8.19c1.74-.37,3.53-.69,5.37-.97,1.85-.24,3.87-.38,6.02-.38M790.05,180.53l-5.23.17c-1.57.05-2.92.2-4.06.46-1.14.25-2.08.68-2.83,1.29-.75.62-1.32,1.46-1.7,2.52-.37,1.06-.56,2.41-.56,4.06,0,4.69,1.91,7.03,5.72,7.03,1.8,0,3.36-.2,4.67-.63,1.32-.42,2.65-.94,3.97-1.58v-13.32h0ZM812.54,200.44c-2.57,0-4.48-.75-5.74-2.26-1.26-1.52-1.9-3.65-1.9-6.38v-26.31h-4.91v-1.8l5.01-1.55,4.03-8.49h2.5v8.49h8.59v3.35h-8.59v25.59c0,1.73.39,3.04,1.17,3.92.79.87,1.81,1.31,3.09,1.31.99,0,1.97-.06,2.94-.2.96-.13,1.86-.28,2.68-.44v2.6c-.4.27-.92.54-1.56.81-.65.26-1.37.49-2.15.68-.79.2-1.62.37-2.5.49-.87.13-1.77.2-2.66.2" style="fill: #6d2929;"/>
        <path d="M833.76,149.89c0,.58-.12,1.13-.35,1.66-.45,1.04-1.28,1.87-2.33,2.31-.53.22-1.08.34-1.66.34s-1.15-.11-1.68-.34c-.51-.23-.97-.54-1.38-.94-.4-.41-.71-.87-.94-1.38-.22-.52-.34-1.08-.34-1.66s.11-1.15.34-1.68c.23-.54.54-1.01.94-1.4.41-.41.87-.72,1.38-.94.52-.23,1.09-.35,1.68-.35s1.13.12,1.66.35c.54.22,1.01.53,1.4.94.41.4.72.86.94,1.4.24.53.35,1.09.35,1.68M833.38,196.84l6.42.99v1.8h-19.44v-1.8l6.38-.99v-31.92l-5.3-1.02v-1.78h11.94v34.72ZM875.82,180.69c0,6.36-1.42,11.23-4.27,14.64-2.84,3.4-7.28,5.1-13.28,5.1-5.64,0-9.91-1.69-12.79-5.06-2.87-3.38-4.31-8.28-4.31-14.68s1.43-11.19,4.31-14.53c2.88-3.36,7.25-5.04,13.1-5.04s9.98,1.64,12.87,4.93c2.91,3.3,4.36,8.19,4.36,14.66M868.65,180.69c0-2.59-.18-4.9-.53-6.93-.34-2.03-.92-3.75-1.73-5.15s-1.89-2.45-3.22-3.18c-1.32-.73-2.96-1.1-4.89-1.1s-3.6.37-4.87,1.1c-1.28.72-2.29,1.78-3.04,3.18s-1.27,3.12-1.56,5.15c-.28,2.04-.42,4.35-.42,6.93s.14,4.93.42,6.98c.29,2.05.81,3.79,1.56,5.21.74,1.42,1.76,2.52,3.04,3.28,1.27.76,2.9,1.14,4.87,1.14s3.57-.38,4.89-1.14c1.33-.76,2.41-1.85,3.22-3.28.81-1.42,1.39-3.15,1.73-5.21.34-2.05.53-4.37.53-6.98M888.6,165.17c.74-.42,1.62-.88,2.65-1.36,1.05-.48,2.13-.92,3.22-1.31,1.11-.41,2.23-.73,3.35-.99s2.15-.39,3.11-.39c1.43,0,2.75.2,3.96.61,1.2.41,2.23,1.05,3.09,1.93.87.87,1.55,2.01,2.04,3.43s.73,3.11.73,5.1v24.67l4.55.99v1.8h-16.15v-1.8l4.99-.99v-23.97c0-2.21-.54-3.94-1.62-5.21-1.08-1.26-2.75-1.9-5.01-1.9-.75,0-1.54.04-2.38.13-.82.07-1.63.17-2.43.27-.8.11-1.55.24-2.26.39-.7.15-1.29.27-1.77.37v29.89l5.08.99v1.8h-16.2v-1.8l4.5-.99v-31.92l-4.5-1.02v-1.78h10.68l.36,3.05ZM939.39,165.48h-6.45v-1.95l6.45-1.56v-2.63c0-2.82.28-5.3.85-7.44.57-2.15,1.4-3.94,2.48-5.39,1.08-1.46,2.39-2.56,3.96-3.29,1.55-.74,3.3-1.12,5.25-1.12,1.2,0,2.27.07,3.2.22s1.77.33,2.52.53v8.19h-1.97l-1.78-4.91c-.43-.26-.9-.48-1.41-.63-.5-.15-1.12-.22-1.85-.22-.94,0-1.7.21-2.28.63-.59.41-1.06,1.04-1.4,1.92-.34.86-.58,1.96-.72,3.29-.14,1.32-.2,2.92-.2,4.79v6.23h9.99v3.35h-9.99v31.06l8.11,1.31v1.8h-20.27v-1.8l5.54-1.31v-31.06h0ZM992.12,180.69c0,6.36-1.42,11.23-4.27,14.64-2.84,3.4-7.28,5.1-13.28,5.1-5.64,0-9.91-1.69-12.79-5.06-2.87-3.38-4.31-8.28-4.31-14.68s1.43-11.19,4.31-14.53c2.88-3.36,7.25-5.04,13.1-5.04s9.98,1.64,12.87,4.93c2.91,3.3,4.36,8.19,4.36,14.66M984.94,180.69c0-2.59-.18-4.9-.53-6.93-.34-2.03-.92-3.75-1.73-5.15s-1.89-2.45-3.22-3.18c-1.32-.73-2.96-1.1-4.89-1.1s-3.6.37-4.87,1.1c-1.28.72-2.29,1.78-3.04,3.18s-1.27,3.12-1.56,5.15c-.28,2.04-.42,4.35-.42,6.93s.14,4.93.42,6.98c.29,2.05.81,3.79,1.56,5.21.74,1.42,1.76,2.52,3.04,3.28,1.27.76,2.9,1.14,4.87,1.14s3.57-.38,4.89-1.14c1.33-.76,2.41-1.85,3.22-3.28.81-1.42,1.39-3.15,1.73-5.21.35-2.05.53-4.37.53-6.98M1018.47,161.13v10.15h-1.73l-2.31-4.4c-.73,0-1.54.05-2.39.17-.85.1-1.7.24-2.56.41-.85.18-1.67.38-2.45.63-.79.25-1.47.49-2.06.75v28.02l6.44.99v1.8h-17.81v-1.8l4.75-.99v-31.92l-4.75-1.02v-1.78h10.93l.37,4.67c.61-.51,1.45-1.09,2.5-1.75,1.07-.64,2.22-1.26,3.46-1.84,1.24-.59,2.47-1.09,3.72-1.49,1.24-.41,2.34-.61,3.29-.61h.6ZM1105.38,149.28l-17.47,51.6h-2.12l-13.89-36.87-14.26,36.87h-2.12l-17.71-51.6-4.67-1.03v-2.12h20.44v2.12l-7.86,1.03,12.73,37.71,14.4-37.1h1.8l13.89,37.1,12.12-37.71-8.34-1.03v-2.12h17.71v2.12l-4.66,1.03ZM1117.31,180.77v.72c0,1.94.14,3.81.42,5.59s.84,3.36,1.68,4.72c.83,1.36,2.01,2.45,3.53,3.28,1.52.81,3.51,1.22,5.98,1.22.79,0,1.63-.03,2.52-.09.88-.07,1.76-.16,2.63-.26.88-.11,1.73-.23,2.56-.37.82-.13,1.58-.28,2.28-.44v2.23c-.62.41-1.36.79-2.23,1.14-.86.36-1.81.68-2.85.97-1.03.29-2.14.52-3.31.7-1.17.17-2.35.26-3.55.26-3.12,0-5.75-.42-7.89-1.27-2.14-.85-3.88-2.11-5.21-3.79-1.32-1.68-2.28-3.75-2.87-6.22-.58-2.47-.87-5.32-.87-8.56,0-6.55,1.37-11.43,4.11-14.64,2.73-3.22,6.65-4.84,11.74-4.84,2,0,3.87.27,5.61.81,1.74.53,3.26,1.41,4.57,2.67,1.3,1.25,2.33,2.93,3.09,5.04.76,2.1,1.14,4.72,1.14,7.86v3.28h-23.06ZM1125.97,164.32c-1.5,0-2.79.31-3.87.94-1.07.63-1.96,1.52-2.67,2.67-.7,1.14-1.23,2.53-1.56,4.16s-.49,3.46-.49,5.48h16.06c0-2.02-.12-3.85-.35-5.48-.22-1.62-.62-3.02-1.19-4.16-.58-1.15-1.34-2.04-2.3-2.67-.96-.63-2.17-.94-3.63-.94M1168.8,189.1c0,1.69-.26,3.22-.79,4.62-.5,1.38-1.34,2.61-2.45,3.59-1.12.99-2.57,1.77-4.34,2.31-1.77.54-3.9.81-6.4.81-1.25,0-2.48-.07-3.7-.22-1.2-.14-2.33-.31-3.36-.51-1.03-.19-1.93-.4-2.7-.61-.78-.22-1.33-.4-1.68-.53v-9.22h1.78l1.95,5.23c.83.75,1.9,1.4,3.2,1.93,1.3.53,2.83.79,4.6.79,2.46,0,4.36-.54,5.7-1.62,1.35-1.08,2.02-2.75,2.02-5.01,0-1.33-.28-2.44-.85-3.29-.55-.87-1.28-1.59-2.19-2.17-.9-.59-1.92-1.07-3.09-1.46-1.16-.39-2.34-.79-3.55-1.17-1.2-.41-2.38-.86-3.55-1.36-1.13-.48-2.17-1.14-3.09-1.95-.91-.81-1.64-1.81-2.21-3-.55-1.2-.83-2.69-.83-4.47s.3-3.22.92-4.55c.61-1.33,1.47-2.45,2.58-3.36s2.42-1.59,3.96-2.06c1.53-.47,3.21-.7,5.04-.7s3.59.13,5.32.39,3.39.55,4.99.87v8.17h-1.87l-1.68-4.34c-.7-.61-1.65-1.08-2.85-1.4-1.19-.32-2.46-.48-3.81-.48-2.16,0-3.81.53-4.94,1.6-1.13,1.07-1.7,2.5-1.7,4.31,0,1.23.28,2.23.85,3.02.57.79,1.3,1.46,2.21,2,.92.54,1.96,1.02,3.13,1.41,1.17.4,2.38.8,3.6,1.24,1.23.42,2.42.9,3.59,1.46,1.17.54,2.22,1.25,3.13,2.1.92.85,1.66,1.89,2.23,3.11.57,1.21.86,2.72.86,4.52M1181.81,200.44c-2.57,0-4.48-.75-5.74-2.26-1.26-1.52-1.9-3.65-1.9-6.38v-26.31h-4.91v-1.8l5.01-1.55,4.03-8.49h2.5v8.49h8.59v3.35h-8.59v25.59c0,1.73.39,3.04,1.17,3.92.79.87,1.81,1.31,3.09,1.31.99,0,1.97-.06,2.94-.2.96-.13,1.86-.28,2.68-.44v2.6c-.4.27-.92.54-1.56.81-.65.26-1.37.49-2.15.68-.79.2-1.62.37-2.5.49-.87.13-1.77.2-2.66.2M1223.47,197.52v2.12h-17.61v-2.12l6.08-1.09,18.25-50.76h7.58l18.95,50.76,6.79,1.09v2.12h-22.62v-2.12l7.17-1.09-5.3-15.44h-21.09l-5.37,15.44,7.17,1.09ZM1232.06,151.43l-9.18,26h18.63l-9.45-26ZM1269.8,165.48h-6.45v-1.95l6.45-1.56v-2.63c0-2.82.28-5.3.85-7.44.57-2.15,1.4-3.94,2.48-5.39,1.08-1.46,2.39-2.56,3.96-3.29,1.55-.74,3.3-1.12,5.25-1.12,1.2,0,2.27.07,3.2.22s1.77.33,2.52.53v8.19h-1.97l-1.78-4.91c-.43-.26-.9-.48-1.41-.63-.5-.15-1.12-.22-1.85-.22-.94,0-1.7.21-2.28.63-.59.41-1.06,1.04-1.4,1.92-.34.86-.58,1.96-.72,3.29-.14,1.32-.2,2.92-.2,4.79v6.23h9.99v3.35h-10v31.06l8.11,1.31v1.8h-20.27v-1.8l5.54-1.31v-31.06Z" style="fill: #6d2929;"/>
        <path d="M1311.27,161.13v10.15h-1.73l-2.31-4.4c-.73,0-1.54.05-2.39.17-.85.1-1.7.24-2.56.41-.85.18-1.67.38-2.45.63-.79.25-1.47.49-2.06.75v28.02l6.44.99v1.8h-17.81v-1.8l4.75-.99v-31.92l-4.75-1.02v-1.78h10.93l.37,4.67c.61-.51,1.45-1.09,2.5-1.75,1.07-.64,2.22-1.26,3.46-1.84,1.24-.59,2.47-1.09,3.72-1.49,1.24-.41,2.34-.61,3.29-.61h.6,0Z" style="fill: #6d2929;"/>
        <path d="M1323.83,149.89c0,.58-.12,1.13-.35,1.66-.45,1.04-1.28,1.87-2.33,2.31-.53.22-1.08.34-1.66.34s-1.15-.11-1.68-.34c-.51-.23-.97-.54-1.38-.94-.4-.41-.71-.87-.94-1.38-.22-.52-.34-1.08-.34-1.66s.11-1.15.34-1.68c.23-.54.54-1.01.94-1.4.41-.41.87-.72,1.38-.94.52-.23,1.09-.35,1.68-.35s1.13.12,1.66.35c.54.22,1.01.53,1.4.94.41.4.72.86.94,1.4.24.53.35,1.09.35,1.68M1323.44,196.84l6.42.99v1.8h-19.44v-1.8l6.38-.99v-31.92l-5.3-1.02v-1.78h11.94v34.72ZM1361.9,197.37c-.69.51-1.51.96-2.46,1.34-.95.38-1.98.7-3.07.95-1.09.26-2.23.45-3.43.57-1.17.13-2.33.2-3.44.2-3.25,0-6.03-.44-8.34-1.32-2.3-.89-4.18-2.19-5.65-3.9-1.47-1.7-2.54-3.78-3.24-6.23-.69-2.46-1.03-5.25-1.03-8.37,0-3.41.45-6.34,1.34-8.79.89-2.46,2.14-4.49,3.74-6.08,1.59-1.58,3.49-2.75,5.69-3.5,2.19-.74,4.59-1.12,7.2-1.12,2.15,0,4.25.13,6.27.39s3.85.55,5.5.87v10.45h-2.19l-1.71-6.62c-.98-.57-2.17-1.02-3.57-1.36s-2.86-.51-4.38-.51c-1.73,0-3.26.31-4.58.94-1.32.63-2.43,1.61-3.35,2.94-.91,1.32-1.6,3.01-2.06,5.06-.47,2.05-.7,4.49-.7,7.34,0,2.39.19,4.56.59,6.49.41,1.92,1.11,3.57,2.12,4.93,1.02,1.35,2.38,2.4,4.11,3.14,1.71.75,3.89,1.12,6.52,1.12.91,0,1.83-.03,2.78-.09.94-.07,1.85-.17,2.74-.29.89-.12,1.73-.26,2.52-.42.79-.16,1.48-.34,2.1-.51v2.4ZM1379.71,161.28c1.7,0,3.28.16,4.75.48,1.46.32,2.72.87,3.79,1.63s1.9,1.82,2.48,3.14c.6,1.32.9,2.97.9,4.96v25.33l4.67.99v1.8h-10.28l-.78-3.75c-.4.41-.94.87-1.62,1.4-.68.53-1.49,1.02-2.45,1.49s-2.07.86-3.33,1.17-2.67.48-4.21.48c-1.8,0-3.33-.27-4.57-.83-1.25-.57-2.23-1.34-2.98-2.34-.75-.99-1.28-2.17-1.6-3.55-.32-1.37-.48-2.85-.48-4.45s.19-3.08.59-4.28c.41-1.22.96-2.23,1.68-3.06.72-.82,1.57-1.49,2.54-2,.98-.52,2.03-.94,3.16-1.24,1.13-.29,2.32-.49,3.59-.59s2.53-.18,3.81-.2l5.63-.17v-5.87c0-1.11-.09-2.14-.27-3.06s-.49-1.71-.94-2.38-1.04-1.17-1.78-1.55c-.73-.38-1.67-.57-2.78-.57-1.28,0-2.57.18-3.89.51-1.3.34-2.45.8-3.43,1.36l-1.36,4.67h-2.24v-8.19c1.74-.37,3.53-.69,5.37-.97,1.85-.24,3.86-.38,6.01-.38M1385,180.53l-5.23.17c-1.57.05-2.92.2-4.06.46-1.14.25-2.08.68-2.83,1.29-.75.62-1.32,1.46-1.7,2.52-.37,1.06-.55,2.41-.55,4.06,0,4.69,1.91,7.03,5.72,7.03,1.8,0,3.36-.2,4.67-.63,1.32-.42,2.65-.94,3.97-1.58v-13.32Z" style="fill: #6d2929;"/>
      </g>
    </g>
  </g>
  <g id="Calque_2">
    <path d="M10.21,74.24l75.99.14c1.26.49,1.22,2.49.06,3.01-.89.4-2.89,0-4.11.25-2.69.56-4.92,3.69-4.87,6.42v109.84c.29,2.57,2.45,5.27,5.08,5.71,2.11.35,6.78-.66,3.91,3.27H9.77c-.79-.49-.98-1.37-.72-2.25.45-1.53,4.32-1.09,5.65-1.27,2.46-.34,5.17-2.26,5.34-4.93v-111.63c-.34-2.93-2.89-4.54-5.6-4.94-1.29-.19-4.95.23-5.4-1.27-.33-1.12.02-2.06,1.16-2.35M37.23,114.73v-31.69c0-.49-.73-2.3-1.07-2.78-1.84-2.61-7.72-2.6-9.81-.41-1.16,1.22-1.27,3.13-1.45,4.71l.02,108.55c.27,3.33,1.46,5.43,5.01,5.78,2.39.23,5.51-.16,6.65-2.59.16-.34.67-1.9.67-2.15v-32.46l4.64,1.71.11,31.67c1.08,5.1,11.61,5.42,12.8.19l.18-32.03c1.91-.08,3.76-.57,5.39-1.55v32.72c0,1.13,1.23,3.06,2.23,3.68,3.85,2.38,10.11.3,9.6-4.95l-.02-109.58c.2-4.95-6-6.65-9.58-4.45-1,.62-2.23,2.55-2.23,3.68v31.95c-1.64-.57-3.14-1.49-4.97-1.32l-.38-.39-.06-30.48c-.64-5.77-11.59-5.63-12.89-.62l-.18,30.88-.25.52-4.4,1.41ZM67,46.99l.02-12.97c.06-.71-.66-.91-.78-1.53-.12-.64.14-3.55,0-3.72l-1.29.4c-1.1-2.03-2.43-3.97-3.46-6.04-.89-1.78-.56-1.78.34-3.53l-7.54-13.66c-1.07-3.36,3.35-6.3,5.78-3.48l7.75,13.68c.89.25,2.15-.26,2.91.29,1.19.86,2.94,5.78,4.21,7.07l-3.59,2.06c.49,1.51,1.7,3.02,2.2,4.48.11.3-.1.67,0,1.02.63,2.63,1.33,5.39,1.85,8.17.47,2.56.81,5.16,1.11,7.74l15.51.03c7.25,1.52,6.9,11.57-.36,12.56,1.7,4.69-.82,9.41-6.02,9.5H11.67c-5.26.07-8.14-4.7-6.28-9.5-4.56-.79-6.91-5.88-4.32-9.84,3.02-4.62,11.17-2.09,15.86-2.75.4-2.58.98-5.13,1.74-7.63.73-2.38,1.81-4.68,2.51-6.97.3-1,1.13-.7-.11-2.17l1.5-1.87-2.8-2.78,5.44-6.23,3.95.7c.46-.03,2.71-2.61,2.83-3.06.16-.56-.19-1.02-.11-1.6.42-2.98,3.13-6.53,6.11-7.28,2.92-.73,6.04,2.25,6.17,5.16.12,2.75-3.16,6.55-5.72,7.36-.81.26-1.64.09-2.34.49-.15.09-2.17,2.32-2.32,2.55-.87,1.36.36,2.09.08,3.13-.23.84-2.93,2.87-3.43,4.28-.18.5,0,1.17-.25,1.56-.15.24-.64.21-.64.25v14.11h37.46v.02ZM75.74,46.99c-.38-4.35-1.06-8.74-2.36-12.91l-2.91-2.75c-.29.33-.02.94-.16,1.39-.14.43-.73.37-.73.41v13.85h6.15ZM17.72,46.99h9.11l.39-.39v-13.6c0-.08-.73-.85-.64-1.41l-1.84,1.77-.99-.75c-.49.94-1.56.85-2.15,1.43-1.08,1.09-4.37,12.46-3.88,12.95M5.84,50.39c-3.44.97-2.91,5.76.7,5.85l85.32-.18c2.65-1.15,2.65-4.42,0-5.56l-86.02-.11ZM10.46,59.62c-3.09.68-2.95,5.47.19,5.85l76.57-.2c2.4-1.47,1.91-5.36-1.09-5.71l-75.68.07ZM416.37,113.71l-.24,2.97-6.43,1.27v18.22l.39.39h20.41v-18.98l-6.42-.77v-3.08h25.16l-.24,2.97-6.17.88.11,43.38,6.3,1.02.02,3.06h-25.16l.02-3.06,5.98-.82.42-.34v-20.14h-20.41l-.39.39v19.89l6.68,1.03c-.12.99.36,2.33-.38,3.07h-24.77l.02-3.06,6.3-1.02.11-43.38-6.42-.77v-3.08h25.12v-.02ZM188.94,48.53l-.24,2.97-6.43.88v18.98h20.8v-18.98l-6.42-.77v-3.08h25.16v3.08l-6.56,1.01-.11,42.75.42.6,6.25.81v3.07h-25.16v-3.07l6.41-.77v-20.53h-20.8v20.14l.43.34,6.24.82c-.13.7.36,2.79-.42,3.05l-24.75-.08-.2-.31.21-2.54,6.43-1.03v-43.48l-6.44-.88c-.38-.26-.46-2.58.14-2.97h25.03ZM285.97,165.03v-3.07l5.47-.81.43-.6.02-42.84-6.19-1.03-.24-2.97c9.02.34,18.37-.45,27.35,0,10.23.49,20.6,3.67,19.59,16.02-.53,6.47-4.25,10.56-10.23,12.61l13.42,18.53,5.56,1.11v3.06s-16.29,0-16.29,0l-14.63-21.81h-6.03v17.58l.42.34,5.99.81v3.07h-24.65ZM304.19,138.86h8.86c1.42,0,4.32-1.58,5.25-2.7,3.21-3.83,3.23-14.79-2.13-17.1-.66-.28-3.04-.98-3.65-.98h-8.34v20.79h0ZM193.5,113.27c15.63-1.22,28.36,4.25,30.34,21.1,2.65,22.53-10.93,34.17-32.91,30.84-11.94-1.81-19.14-10.14-19.97-22.13-1.14-16.49,4.88-28.42,22.53-29.81M196.33,117.12c-10.97.71-12.14,10.42-12.51,19.31-.49,11.62.09,26.71,15.77,25.26,12.07-1.11,12.18-17.76,11.68-26.81-.53-9.68-3.51-18.5-14.94-17.77M268,48.53v8.47l-3.6-.11-1.14-3.22c-1.62-.77-3.43-.41-5.14-.51-.5-.03-.99-.24-1.54-.26-4.48-.18-9.01.15-13.48,0v18.73h12.96l1.27-5.4,3.74-.25v15.66h-3.59l-1.41-5.64h-12.96v19.51c7.32,0,14.65.14,21.94-.51l.51-.26,1.92-3.34h3.59l-.51,7.82-.39.64h-45.82v-3.08l6.42-.77v-43.48s-6.42-.92-6.42-.92v-3.08h43.65ZM408.67,188.63h-3.59l-1.45-3.81-19.86-.55v18.73h12.96l1.41-5.64h3.59v15.66h-3.59l-1.02-5.64h-13.35v19.51c5.33-.19,10.73.24,16.05,0,1.43-.06,4.68-.18,5.88-.53.91-.27,2.04-2.89,2.45-3.84h3.59l-.51,8.09-.39.64h-45.82l.24-2.97,6.32-1.12.11-42.75-.43-.6-6.24-.81c.12-.99-.36-2.33.38-3.07h42.87l.39.39v8.32h0ZM164.29,179.91v8.72h-3.59l-1.18-3.87-20.12-.49v18.73h13.35l1.02-5.64h3.59v15.66h-3.59l-1.02-5.64h-13.35v19.51c5.33-.18,10.72.23,16.05,0,1.38-.05,3.23-.16,4.57-.3,2.89-.3,2.39-2.05,4.01-3.95l3.59-.12-.77,8.72h-45.82c-.6-.39-.53-2.71-.14-2.97l6.44-1.02v-43.48s-6.44-.88-6.44-.88c-.4-.27-.46-2.56.14-2.96h43.26v-.02ZM317.03,231.23h-22.84l.25-2.96,5.4-.89-4.61-12.97-19.62-.13-4.52,13.1,6.18.88.24,2.97h-15.66l.11-2.83,3.54-1.02,18.28-47.48c.2-.26.48-.23.76-.26,1.09-.13,9.97-.13,10.41.14l17.9,47.02c.43,1.09,3.61.93,4.05,1.6l.13,2.83ZM293.67,209.93l-8.09-22.33-8.34,22.33h16.43ZM254.14,113.71l-.24,2.97-6.19,1.03.04,32.54c1.24,13.6,23.18,13.33,23.83-.49v-32.2l-6.68-.77v-3.08h17.07c.6.39.53,2.71.14,2.97l-5.68,1.03v31.8c-1.01,23.08-42.09,21.19-41.07-2.04l.03-29.76-5.41-1.03-.25-2.96h24.4v-.02ZM91.65,220.71c7.83,1.39,7.43,12.1-.64,12.83H6.3c-5.24-.33-8.32-6.45-4.75-10.64,1.15-1.34,2.39-1.52,3.82-2.34-1.55-3.77.28-8.37,4.51-9.09l77.25.03c4.29.89,6.01,5.26,4.51,9.21M10.46,214.87c-3.09.68-2.95,5.47.19,5.85l76.57-.2c2.4-1.47,1.91-5.36-1.09-5.71l-75.68.07ZM6.37,224.11c-3.63.41-3.8,5.13-.33,5.84h85.24c4.11-.89,3.06-6.06-1.02-5.92l-83.89.08ZM163.53,113.71v8.47h-3.85l-1.22-3.59-19.06-.51v20.79h12.32l1.14-6.17,3.48-.24v17.19l-3.48-.24-1.14-6.17h-12.32v17.7l8.47,1.02v3.08h-26.31c-.6-.42-.55-2.65-.13-2.96l5.48-.94.43-.6v-42.84s-6.44-1.02-6.44-1.02c-.38-.26-.46-2.58.14-2.97h42.48,0ZM161.21,48.53v8.47h-3.59l-1.2-3.6-13.94-.5v43.11l7.96.77v3.08h-28.24v-3.08l7.96-.77v-43.37l-13.94.76-1.18,3.49c-.34.24-3.23.31-3.61-.27v-7.7l.39-.39h49.41ZM388.64,113.71v8.47h-3.59l-1.2-3.54c-4.6-.81-9.29-.5-13.94-.57v42.73c.16.26.35.33.64.38,2.29.41,4.98.42,7.31.77v3.08h-28.24v-3.08c2.34-.34,5.02-.35,7.31-.77.29-.05.48-.12.64-.38v-42.99l-13.94.76-1.19,3.48c-.38.26-3.21.31-3.6-.26v-7.7l.39-.39h49.41,0ZM362.72,188.63h-3.85c0-.72-.61-3.62-1.19-3.81l-13.95-.55v43.11l7.97.88c.38.26.46,2.58-.14,2.97h-28.11l.24-2.97c2.31-.45,5.07-.35,7.32-.89.28-.07.49-.09.65-.37v-42.73l-13.94.5-1.2,3.86h-3.59v-8.72h49.41l.39.39v8.34h0ZM265.95,188.63h-3.85c-.17-.73-.57-3.61-1.19-3.81l-13.95-.55v43.11l7.97.88c.38.26.46,2.58-.14,2.97h-28.11l.24-2.97c2.31-.45,5.07-.35,7.32-.89.28-.07.49-.09.65-.37v-42.73c-4.66.02-9.33-.19-13.95.56l-1.19,3.81h-3.59v-8.72h49.41l.39.39v8.34h0ZM208.19,180.94v7.7l-3.43-.04c-3.05-5.04-10.53-6.08-15.77-4.39-5.62,1.8-6.4,8.33-1.38,11.52,9.11,5.8,24.09,4.38,24.13,19.96.05,15.87-14.53,17.5-27.02,15.77-3.01-.41-6.47-1.08-9.15-2.4v-6.54c1.13.11,2.52-.2,3.6.11,1.06.32,3.43,2.76,4.94,3.52,5.19,2.58,15.88,3.23,18.34-3.31,4.05-10.78-10-12.03-16.8-15.16-7.35-3.39-11.08-9.26-9.51-17.55,2.59-13.63,22.11-11.03,32.03-9.18" style="fill: #6f2a2a;"/>
    <path d="M49.03,122.43c2.16-3.64,6.08-5.54,9.94-2.88,8.74,6.01,8.87,32.72-.73,37.88-3.98,2.14-7.28-.42-9.72-3.43-2.34,4.49-7.58,5.72-11.29,1.93-6.89-7.03-6.85-27.27-.52-34.65,2.68-3.13,6.16-4.09,9.62-1.4.83.64,1.62,2,2.18,2.44.2.14.28.15.52.11M47.5,129.1c-.99-5.63-5.47-11.12-9.46-3.67-3.54,6.6-3.45,19.14.08,25.75,4.1,7.65,8.56,1.36,9.63-4.11h-5.13l4.1-4.5c-.84-1.17-2.29-1.72-2.54-3.34-.39-2.45.45-4.13,2.55-5.38l-4.11-4.74h4.88,0ZM50.07,147.07c.6,5.85,5.47,11.59,9.45,3.93,3.48-6.7,3.63-20.95-1.02-27.11-4.1-5.43-7.78,1.09-8.42,5.22h4.62c.11.45-.19.51-.38.77-1.02,1.33-2.76,2.46-3.73,3.97,3.68,1.69,3.61,6.67,0,8.34-.22.31,3.36,3.62,3.73,4.1.19.26.49.33.38.77h-4.62ZM50,139.3c1.48-1.56-1.13-4.35-2.68-2.43-1.41,1.75,1.18,4.02,2.68,2.43" style="fill: #6f2a2a;"/>
  </g>
</svg>